<svg preserveAspectRatio="none" width="118" height="133" viewBox="0 0 118 133" fill="none" xmlns="http://www.w3.org/2000/svg">
<path d="M87.7836 26.211V26.211C86.4339 24.8608 86.4339 22.6774 87.7836 21.3272L89.4271 19.6895C90.7821 18.3446 92.9733 18.3446 94.3283 19.6895V19.6895C95.6729 21.0401 95.6729 23.2184 94.3283 24.569L92.6806 26.211C91.3251 27.5507 89.139 27.5507 87.7836 26.211Z" fill="#83FFA3"/>
<path opacity="0.4" d="M87.7836 26.211V26.211C86.4339 24.8608 86.4339 22.6774 87.7836 21.3272L89.4271 19.6895C90.7821 18.3446 92.9733 18.3446 94.3283 19.6895V19.6895C95.6729 21.0401 95.6729 23.2184 94.3283 24.569L92.6806 26.211C91.3251 27.5507 89.139 27.5507 87.7836 26.211Z" fill="white"/>
<path d="M90.0972 23.9181V23.9181C88.3547 22.1775 88.3547 19.3599 90.0972 17.6192L93.3169 14.411C95.0638 12.6747 97.8915 12.6747 99.6384 14.411V14.411C101.383 16.1507 101.383 18.9702 99.6384 20.7099L96.4102 23.9181C94.6624 25.6443 91.845 25.6443 90.0972 23.9181Z" fill="#83FFA3"/>
<path d="M94.5854 19.4291V19.4291C91.6065 16.4759 86.7927 16.4759 83.8137 19.4291L94.5854 30.1667C97.5474 27.1959 97.5474 22.3999 94.5854 19.4291Z" fill="#83FFA3"/>
<path d="M98.9556 40.2492C98.5949 40.2492 98.3024 39.9578 98.3024 39.5983C98.3024 39.2388 98.5949 38.9474 98.9556 38.9474C105.473 38.9474 110.756 33.6832 110.756 27.1894C110.756 20.6956 105.473 15.4314 98.9556 15.4314C98.7105 15.4511 98.4751 15.3319 98.3465 15.123C98.2178 14.9142 98.2178 14.651 98.3465 14.4422C98.4751 14.2333 98.7105 14.1141 98.9556 14.1338C103.693 14.0491 108.108 16.5192 110.502 20.5941C112.896 24.669 112.896 29.714 110.502 33.7889C108.108 37.8637 103.693 40.3338 98.9556 40.2492V40.2492Z" fill="#83FFA3"/>
<path fill-rule="evenodd" clip-rule="evenodd" d="M99.9334 58.0794L114.843 128.627L115.581 128.606L115.442 130.63H81.3989L81.5675 128.149H83.8643L83.8348 128.606H94.1219L105.682 95.2389L97.94 58.6211L99.9334 58.0794ZM112.736 128.627L105.993 96.6582L94.9015 128.627H112.736Z" fill="#83FFA3"/>
<path fill-rule="evenodd" clip-rule="evenodd" d="M25.7071 58.1004L40.6004 128.627H41.3379L41.1988 130.651H7.16006L7.32442 128.17H9.62542L9.59171 128.627H19.8914L31.4512 95.2599L23.7138 58.6421L25.7071 58.1004ZM38.4933 128.627L31.7504 96.6582L20.65 128.627H38.4933Z" fill="#83FFA3"/>
<path d="M106.735 93.114L104.818 98.6445H30.7601L32.6734 93.114H106.735V93.114Z" fill="#83FFA3"/>
<path d="M103.819 97.2839L104.818 98.6445H30.7601L29.7613 97.2839H103.819V97.2839Z" fill="#83FFA3"/>
<path opacity="0.2" d="M103.819 97.2839L104.818 98.6445H30.7601L29.7613 97.2839H103.819V97.2839Z" fill="black"/>
<path d="M91.9051 84.5853H1.44971L0.139069 83.2835L116.584 33.925L117.89 35.2268L91.9051 84.5853V84.5853Z" fill="#83FFA3"/>
<path opacity="0.4" d="M91.9051 84.5853H1.44971L0.139069 83.2835L116.584 33.925L117.89 35.2268L91.9051 84.5853V84.5853Z" fill="black"/>
<path d="M12.9575 55.7743L15.4675 51.0023L15.8408 51.1973L13.3308 55.9692L12.9575 55.7743Z" fill="#83FFA3"/>
<path d="M10.9375 59.6102L12.1309 57.3414L12.5042 57.5363L11.3108 59.8052L10.9375 59.6102Z" fill="#83FFA3"/>
<path d="M90.5945 83.2835H0.139069L26.1286 33.925H116.584L90.5945 83.2835V83.2835Z" fill="#83FFA3"/>
<path opacity="0.3" d="M81.5001 75.3678L17.4809 75.5946L36.4198 40.2954C51.5913 41.3788 74.3147 41.4796 99.1706 40.9883L81.5001 75.3678Z" fill="black"/>
<path d="M80.5771 75.5946H17.1184L35.3494 40.9673C54.8953 41.6895 75.8276 41.2276 98.3741 40.6061C94.8804 49.3322 88.5421 61.9931 80.5771 75.5946Z" fill="white"/>
<g opacity="0.6">
<path d="M28.2947 71.5129C34.2593 71.4793 40.224 71.4513 46.1886 71.4289L65.3846 71.3407L75.0227 71.2945C75.1023 71.2817 75.1608 71.2132 75.1608 71.1328C75.1608 71.0525 75.1023 70.984 75.0227 70.9712L57.1289 71.0552L37.9328 71.1391L28.2947 71.1853C28.2039 71.1853 28.1304 71.2587 28.1304 71.3491C28.1304 71.4396 28.2039 71.5129 28.2947 71.5129V71.5129Z" fill="#83FFA3"/>
<path d="M74.2347 71.8278C78.0584 64.5771 81.9173 57.3431 85.8113 50.1259C86.9351 48.0487 88.0589 45.9714 89.1827 43.8942C89.2839 43.7094 89.0015 43.5456 88.9004 43.7262C84.967 50.9406 81.0801 58.1745 77.2394 65.4281C76.1353 67.5082 75.0368 69.5868 73.9439 71.6641C73.8469 71.8488 74.1251 72.0126 74.2262 71.8278H74.2347Z" fill="#83FFA3"/>
<path d="M89.3766 44.0453C83.3839 44.0789 77.3925 44.1069 71.4026 44.1293L51.979 44.2175L42.3704 44.2637C42.2797 44.2637 42.2061 44.337 42.2061 44.4275C42.2061 44.5179 42.2797 44.5912 42.3704 44.5912C48.3631 44.5576 54.3545 44.5297 60.3444 44.5073L79.768 44.4191L89.3766 44.3729C89.4673 44.3729 89.5409 44.2996 89.5409 44.2091C89.5409 44.1187 89.4673 44.0453 89.3766 44.0453V44.0453Z" fill="#83FFA3"/>
<path d="M43.5041 43.4574C39.6438 50.7894 35.7428 58.1032 31.801 65.3987C30.6772 67.49 29.545 69.5784 28.4043 71.6641C28.3031 71.8488 28.5855 72.0126 28.6866 71.8278C32.6537 64.5491 36.587 57.2367 40.4866 49.8907C41.5936 47.8023 42.6977 45.7125 43.7991 43.6212C43.9002 43.4364 43.6179 43.2727 43.5167 43.4574H43.5041Z" fill="#83FFA3"/>
<path d="M49.8845 68.0107L56.4714 55.0685L58.2456 51.5915C58.3426 51.4067 58.0602 51.2387 57.9633 51.4277L51.1656 64.7394L49.5853 67.8259C49.4926 68.0149 49.7749 68.1786 49.8676 67.9897L49.8845 68.0107Z" fill="#83FFA3"/>
<path d="M34.2495 68.0653L38.0424 60.6325C38.1351 60.4436 37.8527 60.2798 37.76 60.4646L33.9671 67.9015C33.8744 68.0905 34.1568 68.2542 34.2495 68.0653Z" fill="#83FFA3"/>
<path d="M71.6428 68.0107C74.7993 62.3374 77.585 56.4668 80.5771 50.7054C81.3104 49.2944 82.0521 47.8835 82.8276 46.5061C82.9287 46.3214 82.6463 46.1576 82.5452 46.3423C79.3887 52.0114 76.5988 57.8862 73.6109 63.6434C72.8776 65.0586 72.1359 66.4653 71.3605 67.8427C71.2593 68.0233 71.5375 68.1912 71.6428 68.0065V68.0107Z" fill="#83FFA3"/>
<path d="M54.3264 67.9687C57.1921 62.3542 60.0873 56.7482 62.9446 51.1295L63.9139 49.2231L64.4364 48.1942L64.6935 47.6819C64.7651 47.5433 64.8747 47.157 65.018 47.0814C65.2291 47.0519 65.4433 47.0519 65.6544 47.0814H66.4593H68.1829C70.748 47.0562 73.3117 47.0352 75.874 47.0184C78.4658 47.0184 81.0534 46.9974 83.6451 47.0436C83.7248 47.0308 83.7833 46.9623 83.7833 46.882C83.7833 46.8016 83.7248 46.7331 83.6451 46.7203C77.3954 46.6111 71.1414 46.7203 64.8958 46.7917C64.8372 46.7909 64.7826 46.8213 64.7525 46.8715C61.2209 53.8801 57.6135 60.8509 54.044 67.8385C53.9471 68.0275 54.2294 68.1912 54.3264 68.0023V67.9687Z" fill="#83FFA3"/>
<path d="M71.6681 67.8889C70.1299 62.3668 68.2967 56.9288 66.5351 51.4781C66.0379 49.9439 65.5434 48.4112 65.0517 46.8799C64.9885 46.6783 64.6724 46.7623 64.7356 46.9638C66.5183 52.5531 68.3894 58.1171 70.1046 63.7274C70.5261 65.1384 70.9475 66.5535 71.3689 67.9771C71.397 68.0594 71.4848 68.1056 71.5689 68.0821C71.6529 68.0587 71.7039 67.9738 71.685 67.8889H71.6681Z" fill="#83FFA3"/>
<path d="M82.7391 46.7329C79.2581 49.6724 75.5242 52.2759 71.803 54.8879C67.7741 57.714 63.7116 60.4898 59.7544 63.4083C57.7989 64.8486 55.8646 66.3226 54.0103 67.8889C53.8501 68.0233 54.0819 68.2542 54.2421 68.1199C57.7905 65.1258 61.5918 62.4382 65.3889 59.7675C69.3882 56.954 73.4297 54.195 77.3743 51.3017C79.2791 49.9075 81.1671 48.4798 82.9709 46.9638C83.131 46.8253 82.8992 46.5985 82.7391 46.7329V46.7329Z" fill="#83FFA3"/>
<path d="M53.7153 67.9225C58.5364 68.0611 63.3576 68.1157 68.1787 68.1199C69.3419 68.1199 70.5092 68.1199 71.6724 68.0947C71.752 68.0818 71.8105 68.0133 71.8105 67.933C71.8105 67.8526 71.752 67.7841 71.6724 67.7713C66.8386 67.8637 61.9795 67.7713 57.1584 67.6789C56.0121 67.6537 54.8616 67.6327 53.7153 67.5991C53.6357 67.612 53.5772 67.6805 53.5772 67.7608C53.5772 67.8412 53.6357 67.9097 53.7153 67.9225V67.9225Z" fill="#83FFA3"/>
<path d="M47.0314 68.1199C50.1036 62.4214 52.9314 56.6054 55.9109 50.8524C56.6442 49.4302 57.3887 48.0137 58.1445 46.6027C58.2414 46.4179 57.9591 46.2542 57.8621 46.4389C54.7899 52.1374 51.9621 57.9534 48.9826 63.7064C48.2494 65.13 47.5119 66.5493 46.7491 67.9561C46.6521 68.1408 46.9345 68.3046 47.0314 68.1199Z" fill="#83FFA3"/>
<path d="M37.9581 68.0485C39.8798 64.2859 41.8043 60.5247 43.7316 56.765C44.6925 54.8837 45.6534 53.0024 46.6142 51.1211C47.0862 50.2015 47.554 49.2776 48.0218 48.358C48.1735 48.0557 48.4053 47.2914 48.734 47.1612C49.0133 47.1178 49.2976 47.1178 49.5769 47.1612H50.5124C52.9567 47.1192 55.4052 47.073 57.8537 47.1612C58.0602 47.1612 58.0602 46.8421 57.8537 46.8337C54.7478 46.7371 51.6419 46.8337 48.5401 46.8799C48.4815 46.8791 48.4269 46.9095 48.3969 46.9596C44.8526 53.9599 41.2579 60.9391 37.6884 67.9267C37.5914 68.1115 37.8738 68.2794 37.9707 68.0905L37.9581 68.0485Z" fill="#83FFA3"/>
<path d="M47.0567 68.0401C47.6846 61.0315 48.0386 54.006 48.6876 47.0016C48.7087 46.7917 48.3842 46.7917 48.3631 47.0016C47.7141 54.006 47.3601 61.0315 46.728 68.0401C46.728 68.2458 47.0356 68.2458 47.0567 68.0401Z" fill="#83FFA3"/>
<path d="M57.9001 46.8379C52.6744 52.4565 47.2464 57.882 41.9406 63.4208C40.4937 64.9242 39.0608 66.4401 37.642 67.9687C37.4987 68.1199 37.7305 68.3508 37.8738 68.1954C43.129 62.5264 48.5991 57.0547 53.9555 51.4781C55.3603 50.0167 56.7524 48.547 58.1319 47.0688C58.2751 46.9176 58.0434 46.6867 57.9001 46.8379V46.8379Z" fill="#83FFA3"/>
<path d="M37.5535 68.0107C40.6594 68.1619 43.7822 68.2962 46.8924 68.208C47.1031 68.208 47.1031 67.8763 46.8924 67.8847C43.7822 67.9687 40.6594 67.8385 37.5535 67.6873C37.3428 67.6873 37.3428 68.0023 37.5535 68.0107Z" fill="#83FFA3"/>
<path d="M42.5643 48.7233C42.4068 48.9828 42.3598 49.2942 42.4336 49.5884C42.5136 49.8382 42.7177 50.0289 42.9731 50.0923C43.5978 50.1941 44.2353 50.0106 44.7094 49.5926C45.203 49.2337 45.4818 48.6511 45.4511 48.0431C45.3792 47.5324 44.922 47.165 44.4059 47.2032C44.0457 47.2441 43.7122 47.4125 43.4661 47.6777C43.3295 47.8033 43.2001 47.9365 43.0784 48.0767C42.9615 48.1936 42.8759 48.338 42.8298 48.4966C42.7919 48.7023 43.1079 48.7905 43.1459 48.5848C43.1838 48.379 43.4198 48.1648 43.5673 48.0179C43.7328 47.8324 43.9332 47.6812 44.1573 47.5727C44.3363 47.4931 44.5409 47.4934 44.7196 47.5736C44.8983 47.6538 45.0341 47.8063 45.0929 47.9927C45.1659 48.4383 45.0072 48.8905 44.6714 49.1937C44.3151 49.5633 43.8355 49.7903 43.3229 49.832C43.1127 49.8617 42.9021 49.7806 42.7666 49.6178C42.6601 49.3892 42.6808 49.1218 42.8214 48.9123C42.9183 48.7275 42.6359 48.5638 42.539 48.7485L42.5643 48.7233Z" fill="#83FFA3"/>
</g>
<path opacity="0.2" d="M116.584 33.9251L90.6071 83.2835H0.139069L26.1286 33.9251H52.0591L38.8431 39.9594H38.8136C32.0707 42.4076 26.6806 46.1576 23.9245 50.8398C17.6031 61.5648 27.5361 73.096 46.0916 76.6318C64.6471 80.1676 84.7999 74.3054 91.1086 63.5804C92.4252 61.4361 93.0816 58.954 92.9966 56.4416L94.3579 33.8999L116.584 33.9251Z" fill="black"/>
<path d="M34.604 25.6308C33.5089 27.5482 32.3969 29.5369 31.3356 31.5046C30.2744 33.4724 29.2215 35.4569 28.3505 37.4372C28.1222 37.9323 27.9277 38.4232 27.7248 38.914C27.7036 38.9602 27.7248 38.914 27.7248 38.914V38.914V38.914C27.7248 38.914 27.7248 38.9476 27.6994 38.9812C27.6845 39.1066 27.6845 39.2333 27.6994 39.3588C27.7779 39.7674 27.9071 40.1648 28.0842 40.5419C28.2787 40.9615 28.507 41.4272 28.7649 41.8761C29.9026 43.744 31.1654 45.534 32.5449 47.2339L30.8959 48.975C28.9334 47.5471 27.1655 45.8731 25.636 43.9949C24.7491 42.9344 24.0629 41.7233 23.6107 40.4203C23.4768 39.9937 23.3944 39.5529 23.3655 39.107C23.3512 38.8439 23.3597 38.58 23.3909 38.3183C23.4055 38.1773 23.4281 38.0372 23.4585 37.8987C23.4585 37.8274 23.4966 37.7519 23.5135 37.6805L23.5685 37.4917C23.7629 36.9127 23.949 36.3254 24.1604 35.7632C24.989 33.5585 25.9346 31.399 26.9933 29.2936C28.0546 27.1958 29.1581 25.1861 30.3758 23.1638L34.604 25.6308Z" fill="#FFC3BD"/>
<path d="M31.9318 46.6801L34.1812 47.4101L32.2912 50.5736C32.2912 50.5736 30.6338 49.8309 30.304 48.3247L31.9318 46.6801Z" fill="#FFC3BD"/>
<path d="M37.2593 48.6352L35.0649 51.0728L32.2954 50.5778L34.1854 47.4143L37.2593 48.6352V48.6352Z" fill="#FFC3BD"/>
<path d="M47.7452 10.9085C47.6818 11.1561 47.7452 11.391 47.927 11.433C48.1089 11.4749 48.2738 11.3071 48.3499 11.0596C48.426 10.812 48.3499 10.5729 48.168 10.5309C47.9862 10.489 47.8087 10.6568 47.7452 10.9085Z" fill="#263238"/>
<path d="M47.741 11.3868C47.8434 12.2222 48.0611 13.0396 48.3879 13.8161C47.9742 13.9778 47.5094 13.9486 47.1195 13.7363L47.741 11.3868Z" fill="#ED847E"/>
<path d="M47.1871 9.29322C47.1316 9.26921 47.0957 9.21484 47.0957 9.15476C47.0957 9.09468 47.1316 9.04032 47.1871 9.01631C47.6384 8.82726 48.1542 8.86795 48.5697 9.12539C48.637 9.17577 48.6536 9.26918 48.6078 9.33937C48.5585 9.40615 48.4642 9.42112 48.3964 9.37293V9.37293C48.0632 9.17459 47.6545 9.14652 47.297 9.29741C47.2613 9.31053 47.2217 9.30902 47.1871 9.29322V9.29322Z" fill="#263238"/>
<path d="M39.124 11.8819C39.5848 14.2104 40.0457 18.4774 38.4009 20.0297C38.4009 20.0297 39.0436 22.396 43.4029 22.396C48.2019 22.396 45.6988 20.0297 45.6988 20.0297C43.0773 19.413 43.1619 17.483 43.5847 15.6747L39.124 11.8819Z" fill="#FFC3BD"/>
<path d="M37.5976 21.2297C37.3735 19.971 37.124 18.5445 37.9528 18.1795C38.8618 17.7599 43.6397 17.7347 45.183 18.792C46.7262 19.8493 46.0286 22.2827 46.0286 22.2827L37.5976 21.2297Z" fill="#263238"/>
<path opacity="0.6" d="M37.5976 21.2297C37.3735 19.971 37.124 18.5445 37.9528 18.1795C38.8618 17.7599 43.6397 17.7347 45.183 18.792C46.7262 19.8493 46.0286 22.2827 46.0286 22.2827L37.5976 21.2297Z" fill="#83FFA3"/>
<path fill-rule="evenodd" clip-rule="evenodd" d="M23.0864 128.288C22.8367 128.465 22.5485 128.487 22.2873 128.349C22.0132 128.264 21.7465 128.134 21.4924 127.961C21.4643 127.945 21.4457 127.906 21.4459 127.862C21.4486 127.818 21.4683 127.78 21.4966 127.764C21.5389 127.733 22.541 127.141 22.9638 127.443C23.0595 127.505 23.1321 127.624 23.1626 127.77C23.2169 127.948 23.1862 128.157 23.0864 128.288ZM22.9004 127.646L22.8116 127.603V127.634C22.4406 127.593 22.0678 127.673 21.7207 127.868C22.1774 128.115 22.8158 128.331 22.9892 128.115C23.0146 128.097 23.0568 128.035 23.0146 127.838C22.9976 127.753 22.9558 127.683 22.9004 127.646Z" fill="#83FFA3"/>
<path fill-rule="evenodd" clip-rule="evenodd" d="M21.5305 127.777H21.4966C21.4827 127.774 21.4696 127.769 21.4586 127.76C21.4379 127.74 21.4297 127.711 21.4374 127.684C21.4379 127.683 21.4385 127.681 21.4395 127.678C21.4682 127.59 21.7387 126.758 22.1478 126.547C22.252 126.492 22.3747 126.483 22.486 126.522C22.6014 126.546 22.6831 126.648 22.6805 126.765C22.6721 127.126 21.8941 127.672 21.5305 127.777ZM22.4353 126.648H22.4142C22.3494 126.63 22.2804 126.636 22.2197 126.665C21.9385 126.899 21.7351 127.212 21.6362 127.563C22.0125 127.386 22.5283 126.958 22.5283 126.744C22.5283 126.723 22.5283 126.677 22.4353 126.648Z" fill="#83FFA3"/>
<path fill-rule="evenodd" clip-rule="evenodd" d="M46.8911 129.57C46.7558 129.824 46.3711 129.907 45.9483 129.907C45.6236 129.903 45.2998 129.861 44.98 129.783C44.9496 129.772 44.9264 129.737 44.9208 129.694C44.9149 129.649 44.9302 129.604 44.9589 129.582C44.9969 129.546 46.1174 128.654 46.6501 128.855C46.7516 128.887 46.8388 128.977 46.8911 129.103C46.9625 129.243 46.9625 129.43 46.8911 129.57ZM46.6036 129.038C46.5545 129.029 46.5047 129.029 46.4556 129.038H46.443C46.0039 129.112 45.579 129.302 45.1914 129.599C45.7876 129.718 46.5994 129.712 46.7516 129.422C46.7854 129.381 46.8066 129.316 46.7516 129.186C46.7187 129.111 46.6653 129.057 46.6036 129.038Z" fill="#83FFA3"/>
<path fill-rule="evenodd" clip-rule="evenodd" d="M45.0096 129.505H44.98C44.9644 129.508 44.9483 129.507 44.9335 129.501C44.9112 129.484 44.8998 129.457 44.9039 129.43C44.9039 129.396 44.9758 128.536 45.3986 128.204C45.5154 128.105 45.6684 128.058 45.8214 128.074C46.0286 128.095 46.1047 128.2 46.1047 128.284C46.1639 128.666 45.3944 129.333 45.0096 129.505ZM45.8045 128.213H45.7622C45.6649 128.214 45.5708 128.248 45.4958 128.309C45.2571 128.586 45.1096 128.929 45.073 129.291C45.4705 129.052 45.9905 128.511 45.9567 128.297C45.9565 128.296 45.9563 128.295 45.956 128.294C45.9514 128.274 45.9373 128.213 45.8045 128.213Z" fill="#83FFA3"/>
<path d="M41.4495 129.43H44.6587L44.9758 122.054H41.7708L41.4495 129.43V129.43Z" fill="#FFC3BD"/>
<path d="M17.9323 126.929L21.0654 127.604L24.2154 120.736L21.0781 120.061L17.9323 126.929V126.929Z" fill="#FFC3BD"/>
<path d="M21.3698 127.29L17.8435 126.535C17.7154 126.507 17.5852 126.572 17.5306 126.69L16.3087 129.32C16.2491 129.451 16.2528 129.601 16.3187 129.729C16.3846 129.856 16.5054 129.947 16.6469 129.975C17.8815 130.218 18.4946 130.273 20.0295 130.609C20.985 130.814 23.1372 131.334 24.4521 131.615C25.7671 131.897 26.2238 130.642 25.7206 130.411C23.4205 129.367 22.4607 128.448 21.8349 127.592C21.7226 127.438 21.557 127.33 21.3698 127.29Z" fill="#263238"/>
<path d="M44.6375 129.06H41.1323C41.0012 129.06 40.888 129.151 40.8617 129.279L40.2275 132.106C40.1949 132.245 40.2285 132.391 40.3186 132.501C40.4086 132.612 40.5451 132.675 40.6884 132.673C41.9568 132.652 43.7792 132.58 45.369 132.58C47.2252 132.58 48.8276 132.681 51.0094 132.681C52.3244 132.681 52.7007 131.36 52.1383 131.238C49.631 130.692 47.5803 130.634 45.4113 129.308C45.181 129.157 44.9134 129.071 44.6375 129.06Z" fill="#263238"/>
<path d="M51.0348 23.8771C52.0791 26.214 53.2207 28.6139 54.4173 30.9089C55.0135 32.0585 55.635 33.1913 56.2777 34.2653C56.8991 35.3269 57.5853 36.3497 58.3326 37.3281L58.6032 37.6638C58.6709 37.7267 58.6032 37.6973 58.7089 37.7728C58.8776 37.9194 59.0587 38.0513 59.2501 38.1672C59.7577 38.4743 60.2813 38.7544 60.8188 39.0063C61.9519 39.5476 63.157 40.0678 64.3789 40.5587C66.8186 41.5447 69.3301 42.4887 71.8248 43.4327L71.2159 45.7486C68.5091 45.3174 65.8275 44.7432 63.1823 44.0285C61.8547 43.6509 60.527 43.2649 59.1867 42.7698C58.4816 42.5113 57.7926 42.2115 57.1234 41.8719C56.7259 41.6675 56.3455 41.4318 55.986 41.1671C55.7566 40.9959 55.5416 40.8065 55.3433 40.6007L54.9501 40.1811C53.9848 39.0983 53.1042 37.9439 52.3159 36.7281C51.5337 35.5576 50.8276 34.3618 50.1511 33.1535C48.8144 30.748 47.6145 28.2701 46.5571 25.7315L51.0348 23.8771Z" fill="#FFC3BD"/>
<path d="M31.6654 20.7514C28.6592 21.4352 23.6107 36.254 23.6107 36.254L28.5239 37.8735C28.5239 37.8735 33.5385 30.5019 35.2425 26.965C37.0225 23.2267 34.7436 20.0507 31.6654 20.7514Z" fill="#83FFA3"/>
<path opacity="0.5" d="M31.6654 20.7514C28.6592 21.4352 23.6107 36.254 23.6107 36.254L28.5239 37.8735C28.5239 37.8735 33.5385 30.5019 35.2425 26.965C37.0225 23.2267 34.7436 20.0507 31.6654 20.7514Z" fill="black"/>
<path d="M29.378 37.1477C29.378 37.1477 24.5621 36.2373 23.4585 35.5576C23.0738 36.1114 22.6129 38.1169 22.9258 38.7085C23.2387 39.3 27.7248 40.1517 28.3336 39.8035C28.9425 39.4553 29.378 37.1477 29.378 37.1477Z" fill="#263238"/>
<path opacity="0.6" d="M29.378 37.1477C29.378 37.1477 24.5621 36.2373 23.4585 35.5576C23.0738 36.1114 22.6129 38.1169 22.9258 38.7085C23.2387 39.3 27.7248 40.1517 28.3336 39.8035C28.9425 39.4553 29.378 37.1477 29.378 37.1477Z" fill="#83FFA3"/>
<path opacity="0.3" d="M33.6146 26.0126C32.6971 26.9231 31.8642 29.5075 31.8388 32.7927C32.9001 31.1144 33.9952 29.3145 34.7605 27.8755C34.3968 26.579 33.9909 25.6518 33.6146 26.0126Z" fill="black"/>
<path d="M49.6437 20.915C49.6437 20.915 53.0601 24.7414 49.834 48.438H32.6717C32.5534 45.8242 34.2066 33.0696 31.6654 20.7472C33.5631 20.3835 35.4825 20.1424 37.4115 20.0255C39.8422 19.887 42.2788 19.887 44.7094 20.0255C46.375 20.1941 48.0248 20.4915 49.6437 20.915Z" fill="#83FFA3"/>
<path opacity="0.5" d="M49.6437 20.915C49.6437 20.915 53.0601 24.7414 49.834 48.438H32.6717C32.5534 45.8242 34.2066 33.0696 31.6654 20.7472C33.5631 20.3835 35.4825 20.1424 37.4115 20.0255C39.8422 19.887 42.2788 19.887 44.7094 20.0255C46.375 20.1941 48.0248 20.4915 49.6437 20.915Z" fill="black"/>
<path opacity="0.3" d="M47.0983 28.4838C47.4239 31.941 49.6352 36.3296 50.9291 38.3183C51.0982 36.0359 51.187 34.0472 51.2123 32.3102L47.0983 28.4838Z" fill="black"/>
<path d="M45.3944 23.382C43.3268 27.2629 54.1213 39.8832 54.1213 39.8832L57.8929 36.0862C57.8929 36.0862 52.9966 27.5902 51.8466 23.8225C50.4259 19.1654 46.9672 20.4283 45.3944 23.382Z" fill="#83FFA3"/>
<path opacity="0.5" d="M45.3944 23.382C43.3268 27.2629 54.1213 39.8832 54.1213 39.8832L57.8929 36.0862C57.8929 36.0862 52.9966 27.5902 51.8466 23.8225C50.4259 19.1654 46.9672 20.4283 45.3944 23.382Z" fill="black"/>
<path d="M57.7407 35.3352C57.7407 35.3352 54.468 38.956 53.318 39.5308C53.597 40.1433 55.0811 41.5824 55.7619 41.6286C56.4426 41.6747 59.4869 38.2973 59.4996 37.6008C59.5123 36.9044 57.7407 35.3352 57.7407 35.3352Z" fill="#263238"/>
<path opacity="0.6" d="M57.7407 35.3352C57.7407 35.3352 54.468 38.956 53.318 39.5308C53.597 40.1433 55.0811 41.5824 55.7619 41.6286C56.4426 41.6747 59.4869 38.2973 59.4996 37.6008C59.5123 36.9044 57.7407 35.3352 57.7407 35.3352Z" fill="#83FFA3"/>
<path d="M71.0848 43.4746L74.1925 42.1446L75.1608 45.5011C75.1608 45.5011 72.7888 47.0409 70.8903 45.6941L71.0848 43.4746Z" fill="#FFC3BD"/>
<path d="M77.6597 43.7348V43.7348C77.5579 43.8021 77.4205 43.7759 77.351 43.676L73.9008 38.5994C73.8671 38.5512 73.8544 38.4915 73.8655 38.4339C73.8766 38.3762 73.9107 38.3255 73.96 38.2931V38.2931C74.0086 38.2596 74.0687 38.247 74.1268 38.2581C74.1849 38.2691 74.236 38.3029 74.2687 38.3518L77.7189 43.4285C77.7526 43.4767 77.7653 43.5363 77.7542 43.594C77.743 43.6516 77.709 43.7024 77.6597 43.7348V43.7348Z" fill="#263238"/>
<path d="M77.4694 42.3922L78.8351 44.3977L75.1608 45.4885L74.1926 42.1404L77.4694 42.3922V42.3922Z" fill="#FFC3BD"/>
<path opacity="0.2" d="M44.9758 122.058L44.8151 125.859H41.6017L41.7666 122.058H44.9758V122.058Z" fill="black"/>
<path opacity="0.2" d="M21.078 120.065L24.2154 120.736L22.5917 124.277L19.4544 123.602L21.078 120.065V120.065Z" fill="black"/>
<path d="M39.5214 8.24852C38.921 11.3533 38.4094 13.1406 39.5595 15.1041C41.2888 18.041 45.4493 17.6215 46.9715 14.7643C48.3456 12.1882 49.0856 7.54786 46.3964 5.56335C45.1913 4.66848 43.605 4.45675 42.2044 5.00379C40.8038 5.55083 39.7885 6.77862 39.5214 8.24852V8.24852Z" fill="#FFC3BD"/>
<path d="M38.2868 6.71294C40.5489 5.97871 44.8362 4.39697 46.3499 8.00937C47.8636 11.6218 41.6989 15.3936 40.1303 15.3978C38.8703 15.4104 35.8006 7.55205 38.2868 6.71294Z" fill="#263238"/>
<path d="M42.997 8.23593C47.4281 10.6484 51.4534 7.17864 49.6564 3.25577C47.8594 -0.667098 43.9314 -0.100694 45.1534 1.81249C46.3753 3.72568 42.997 0.82653 40.663 1.72019C39.0267 2.34533 41.1493 3.36486 41.348 4.10328C41.5467 4.8417 37.0648 4.86268 36.4687 5.97032C35.8725 7.07795 38.0246 9.38552 39.1282 9.0247C40.2317 8.66388 42.2148 7.80379 42.997 8.23593Z" fill="#263238"/>
<path d="M44.2781 10.0946C44.1319 10.8665 44.2479 11.6648 44.6079 12.3644C45.0857 13.279 45.9144 13.0063 46.2738 12.1378C46.5994 11.3533 46.7389 9.93514 46.0201 9.31C45.3013 8.68486 44.4642 9.16735 44.2781 10.0946Z" fill="#FFC3BD"/>
<path d="M43.7454 48.438C43.7454 48.438 40.1049 72.7724 38.105 81.8852C35.9148 91.8707 24.2111 123.87 24.2111 123.87L18.465 122.637C18.465 122.637 27.2301 92.6763 28.4774 82.7789C29.8346 72.0508 32.6717 48.4254 32.6717 48.4254L43.7454 48.438Z" fill="#263238"/>
<path d="M25.5853 121.97C25.6107 121.97 24.5156 124.03 24.5156 124.03L18.0507 122.641L18.5961 120.715L25.5853 121.97Z" fill="#83FFA3"/>
<path opacity="0.3" d="M41.4452 57.1061C37.217 57.9242 37.6779 73.5066 38.1853 81.5202C39.3988 75.8562 41.1789 64.956 42.3923 57.2194C42.0985 57.077 41.7648 57.0371 41.4452 57.1061V57.1061Z" fill="black"/>
<path d="M49.8255 48.438C49.8255 48.438 50.2483 72.2438 49.9185 81.9523C49.5633 92.0511 46.0201 125.121 46.0201 125.121H40.5742C40.5742 125.121 40.3713 92.6427 40.1303 82.7243C39.8681 71.9123 38.5531 48.438 38.5531 48.438L49.8255 48.438Z" fill="#263238"/>
<path d="M47.056 122.973C47.0814 122.973 46.7474 125.213 46.7474 125.213H40.1345L39.9569 123.216L47.056 122.973Z" fill="#83FFA3"/>
</svg>
