<svg preserveAspectRatio="none" width="1600" height="635" viewBox="0 0 1600 635" fill="none" xmlns="http://www.w3.org/2000/svg">
<rect width="1600" height="635" fill="#473BF0"/>
<mask id="mask0_4_820" style="mask-type:luminance" maskUnits="userSpaceOnUse" x="0" y="0" width="1600" height="635">
<rect width="1600" height="635" fill="white"/>
</mask>
<g mask="url(#mask0_4_820)">
<g opacity="0.0636858">
<mask id="mask1_4_820" style="mask-type:luminance" maskUnits="userSpaceOnUse" x="186" y="-136" width="1261" height="1258">
<path fill-rule="evenodd" clip-rule="evenodd" d="M186.217 -135.5H1446.24V1121.24H186.217V-135.5Z" fill="white"/>
</mask>
<g mask="url(#mask1_4_820)">
<path fill-rule="evenodd" clip-rule="evenodd" d="M1443.94 387.11C1444.34 378.147 1440.17 369.733 1432.8 364.608L723.802 -128.548C718.089 -132.525 711.161 -134.043 704.299 -132.826C697.441 -131.605 691.466 -127.796 687.485 -122.094L193.178 584.91C190.343 588.965 188.729 593.712 188.514 598.63C188.123 607.595 192.291 616.005 199.659 621.136L908.655 1114.29C914.374 1118.27 921.295 1119.79 928.161 1118.57C935.018 1117.34 940.994 1113.54 944.977 1107.84L1439.28 400.835C1442.12 396.778 1443.73 392.029 1443.94 387.11M186.245 598.532C186.481 593.182 188.236 588.026 191.319 583.616L685.62 -123.389C689.952 -129.585 696.445 -133.727 703.903 -135.054C711.361 -136.378 718.888 -134.727 725.102 -130.406L1434.1 362.752C1442.11 368.326 1446.64 377.468 1446.21 387.212C1445.98 392.56 1444.23 397.717 1441.14 402.13L946.837 1109.13C942.507 1115.33 936.017 1119.47 928.559 1120.79C921.103 1122.12 913.574 1120.47 907.357 1116.14L198.364 622.988C190.352 617.418 185.819 608.274 186.245 598.532" fill="#DADADA"/>
</g>
<path fill-rule="evenodd" clip-rule="evenodd" d="M1411.01 379.979C1411.39 371.38 1407.43 363.258 1400.42 358.253L715.484 -131.187C709.971 -135.131 703.246 -136.695 696.551 -135.594C689.855 -134.491 683.994 -130.854 680.041 -125.354L189.459 557.654C186.581 561.665 184.945 566.375 184.731 571.278C184.355 579.879 188.313 588.002 195.321 593.002L880.257 1082.45C891.649 1090.58 907.545 1087.97 915.698 1076.62L1406.28 393.604C1409.16 389.595 1410.8 384.881 1411.01 379.979M182.465 571.176C182.696 565.837 184.479 560.704 187.616 556.336L678.199 -126.67C682.502 -132.663 688.889 -136.623 696.18 -137.825C703.472 -139.025 710.797 -137.321 716.806 -133.028L1401.74 356.415C1409.38 361.867 1413.69 370.711 1413.28 380.077C1413.04 385.42 1411.27 390.556 1408.13 394.922L917.541 1077.93C908.66 1090.3 891.336 1093.15 878.935 1084.29L193.998 594.844C186.368 589.393 182.054 580.546 182.465 571.176" fill="#DADADA"/>
<path fill-rule="evenodd" clip-rule="evenodd" d="M1378.08 372.845C1378.44 364.612 1374.68 356.779 1368.05 351.896L707.168 -133.828C696.194 -141.893 680.689 -139.552 672.602 -128.61L185.744 530.402C182.818 534.358 181.158 539.039 180.944 543.931C180.584 552.164 184.336 559.994 190.98 564.875L851.852 1050.6C857.173 1054.51 863.693 1056.12 870.223 1055.13C876.755 1054.15 882.508 1050.68 886.424 1045.39L1373.28 386.37C1376.21 382.415 1377.87 377.737 1378.08 372.845M178.678 543.827C178.912 538.486 180.721 533.38 183.915 529.062L670.776 -129.952C679.604 -141.9 696.532 -144.455 708.512 -135.65L1369.39 350.074C1376.64 355.408 1380.74 363.959 1380.34 372.946C1380.11 378.287 1378.3 383.393 1375.11 387.715L888.25 1046.73C883.972 1052.51 877.695 1056.3 870.564 1057.37C863.437 1058.45 856.315 1056.69 850.513 1052.43L189.635 566.699C182.383 561.367 178.285 552.819 178.678 543.827" fill="#DADADA"/>
<path fill-rule="evenodd" clip-rule="evenodd" d="M1345.16 365.711C1345.5 357.838 1341.95 350.3 1335.67 345.541L698.849 -136.468C693.73 -140.341 687.41 -141.995 681.046 -141.126C674.687 -140.258 669.043 -136.969 665.163 -131.866L182.019 503.153C179.048 507.063 177.363 511.703 177.15 516.582C176.806 524.453 180.352 531.991 186.638 536.75L823.46 1018.76C834.017 1026.75 849.128 1024.69 857.143 1014.16L1340.29 379.141C1343.26 375.234 1344.94 370.591 1345.16 365.711M174.886 516.48C175.117 511.14 176.961 506.056 180.214 501.784L663.354 -133.234C667.604 -138.818 673.778 -142.416 680.739 -143.369C687.701 -144.319 694.618 -142.508 700.22 -138.271L1337.04 343.74C1343.92 348.946 1347.8 357.196 1347.42 365.811C1347.18 371.151 1345.35 376.235 1342.09 380.51L858.951 1015.53C850.179 1027.05 833.643 1029.31 822.086 1020.56L185.27 538.55C178.39 533.343 174.508 525.098 174.886 516.48" fill="#DADADA"/>
<path fill-rule="evenodd" clip-rule="evenodd" d="M1312.23 358.58C1312.56 351.064 1309.21 343.814 1303.28 339.184L690.529 -139.109C685.612 -142.945 679.492 -144.645 673.296 -143.891C667.096 -143.138 661.568 -140.024 657.721 -135.121L178.298 475.901C175.275 479.75 173.567 484.357 173.354 489.228C173.025 496.743 176.372 503.993 182.302 508.624L795.057 986.918C799.977 990.753 806.093 992.451 812.292 991.698C818.489 990.947 824.02 987.83 827.869 982.928L1307.29 371.908C1310.31 368.06 1312.02 363.448 1312.23 358.58M171.087 489.127C171.323 483.782 173.196 478.73 176.511 474.5L655.934 -136.516C660.154 -141.894 666.224 -145.311 673.019 -146.136C679.818 -146.963 686.531 -145.1 691.928 -140.889L1304.68 337.403C1311.19 342.481 1314.86 350.436 1314.5 358.679C1314.26 364.023 1312.39 369.08 1309.08 373.306L829.655 984.324C825.434 989.708 819.364 993.124 812.567 993.944C805.769 994.776 799.053 992.91 793.663 988.7L180.903 510.406C174.397 505.326 170.728 497.372 171.087 489.127" fill="#DADADA"/>
<path fill-rule="evenodd" clip-rule="evenodd" d="M1279.32 351.448C1279.63 344.288 1276.49 337.33 1270.9 332.831L682.208 -141.749C672.47 -149.599 658.146 -148.087 650.279 -138.377L174.573 448.654C171.504 452.44 169.763 457.016 169.55 461.877C169.236 469.039 172.384 475.995 177.964 480.495L766.66 955.072C771.379 958.88 777.298 960.62 783.325 959.985C789.359 959.344 794.78 956.405 798.589 951.702L1274.29 364.676C1277.37 360.884 1279.11 356.308 1279.32 351.448M167.285 461.779C167.517 456.431 169.43 451.401 172.811 447.229L648.513 -139.799C657.166 -150.479 672.921 -152.143 683.633 -143.51L1272.33 331.072C1278.47 336.016 1281.93 343.672 1281.58 351.546C1281.35 356.892 1279.44 361.924 1276.06 366.1L800.355 953.122C796.165 958.299 790.198 961.533 783.568 962.233C776.933 962.936 770.423 961.02 765.236 956.833L176.539 482.255C170.399 477.308 166.94 469.652 167.285 461.779" fill="#DADADA"/>
<path fill-rule="evenodd" clip-rule="evenodd" d="M1246.41 344.313C1246.71 337.408 1243.84 330.903 1238.52 326.472L673.889 -144.393C669.368 -148.158 663.654 -149.947 657.787 -149.425C651.921 -148.904 646.613 -146.135 642.837 -141.63L170.852 421.401C167.72 425.137 165.953 429.672 165.742 434.523C165.441 441.432 168.319 447.939 173.629 452.368L738.266 923.234C747.594 931.012 761.521 929.773 769.316 920.471L1241.3 357.441C1244.43 353.707 1246.2 349.168 1246.41 344.313M163.478 434.422C163.709 429.075 165.658 424.068 169.11 419.947L641.094 -143.082C645.261 -148.052 651.115 -151.105 657.585 -151.678C664.054 -152.254 670.361 -150.281 675.343 -146.127L1239.98 324.734C1245.84 329.622 1249.01 336.792 1248.68 344.415C1248.44 349.77 1246.49 354.773 1243.04 358.89L771.057 921.923C762.457 932.181 747.096 933.544 736.808 924.97L172.173 454.109C166.312 449.22 163.142 442.046 163.478 434.422" fill="#DADADA"/>
<path fill-rule="evenodd" clip-rule="evenodd" d="M1213.51 337.183C1213.79 330.624 1211.11 324.406 1206.14 320.11L665.567 -147.032C661.249 -150.768 655.732 -152.601 650.029 -152.193C644.329 -151.787 639.132 -149.193 635.388 -144.886L167.13 394.149C163.936 397.825 162.138 402.326 161.926 407.174C161.639 413.731 164.325 419.953 169.29 424.247L709.865 891.393C714.187 895.124 719.704 896.955 725.405 896.55C731.101 896.147 736.299 893.552 740.042 889.245L1208.3 350.207C1211.5 346.535 1213.3 342.03 1213.51 337.183M159.659 407.076C159.893 401.713 161.886 396.732 165.415 392.67L633.674 -146.367C637.813 -151.132 643.564 -154.002 649.868 -154.45C656.174 -154.9 662.277 -152.873 667.052 -148.744L1207.63 318.4C1213.12 323.151 1216.09 330.032 1215.78 337.282C1215.54 342.642 1213.55 347.624 1210.02 351.693L741.756 890.723C737.621 895.491 731.869 898.36 725.566 898.811C719.261 899.255 713.157 897.232 708.384 893.101L167.805 425.955C162.31 421.206 159.344 414.327 159.659 407.076" fill="#DADADA"/>
<path fill-rule="evenodd" clip-rule="evenodd" d="M1180.61 330.05C1180.88 323.843 1178.39 317.903 1173.76 313.75L657.242 -149.681C653.125 -153.378 647.808 -155.252 642.274 -154.96C636.741 -154.67 631.65 -152.248 627.946 -148.139L163.404 366.902C160.193 370.458 158.311 375.05 158.102 379.823C157.833 386.029 160.331 391.971 164.956 396.12L681.472 859.555C685.588 863.248 690.905 865.125 696.444 864.836C701.973 864.544 707.063 862.123 710.771 858.017L1175.31 342.973C1178.52 339.416 1180.41 334.823 1180.61 330.05M155.835 379.726C156.069 374.428 158.154 369.333 161.718 365.39L626.259 -149.652C630.368 -154.208 636.015 -156.898 642.156 -157.221C648.296 -157.544 654.193 -155.461 658.763 -151.361L1175.28 312.071C1180.41 316.674 1183.18 323.264 1182.88 330.149C1182.65 335.446 1180.56 340.535 1177 344.487L712.456 859.529C708.347 864.082 702.701 866.773 696.561 867.095C690.424 867.418 684.524 865.339 679.955 861.234L163.438 397.799C158.305 393.199 155.537 386.608 155.835 379.726" fill="#DADADA"/>
<path fill-rule="evenodd" clip-rule="evenodd" d="M1147.73 322.917C1147.98 317.055 1145.67 311.396 1141.38 307.388L648.922 -152.325C645.001 -155.987 639.882 -157.907 634.517 -157.729C629.149 -157.552 624.169 -155.302 620.497 -151.39L159.678 339.654C156.4 343.146 154.48 347.699 154.271 352.474C154.016 358.337 156.33 363.995 160.617 368.002L653.076 827.713C661.169 835.273 673.922 834.855 681.499 826.783L1142.32 335.737C1145.6 332.244 1147.52 327.692 1147.73 322.917M152.004 352.376C152.238 347.062 154.375 341.994 158.02 338.108L618.842 -152.936C622.926 -157.289 628.464 -159.794 634.438 -159.99C640.413 -160.186 646.107 -158.052 650.472 -153.976L1142.93 305.739C1147.71 310.196 1150.28 316.492 1149.99 323.016C1149.76 328.328 1147.63 333.394 1143.98 337.285L683.153 828.33C674.722 837.313 660.531 837.778 651.526 829.366L159.069 369.652C154.295 365.196 151.721 358.895 152.004 352.376" fill="#DADADA"/>
<path fill-rule="evenodd" clip-rule="evenodd" d="M1114.85 315.785C1115.09 310.267 1112.96 304.886 1109 301.029L640.6 -154.973C632.911 -162.456 620.551 -162.307 613.049 -154.641L155.948 312.408C152.598 315.826 150.636 320.347 150.429 325.119C150.186 330.644 152.322 336.021 156.285 339.879L624.679 795.883C632.37 803.363 644.726 803.21 652.226 795.548L1109.33 328.502C1112.68 325.079 1114.64 320.561 1114.85 315.785M148.164 325.018C148.395 319.69 150.586 314.647 154.325 310.825L611.428 -156.224C619.804 -164.781 633.599 -164.946 642.181 -156.59L1110.58 299.409C1115 303.715 1117.39 309.721 1117.12 315.886C1116.88 321.217 1114.7 326.262 1110.95 330.083L653.849 797.129C645.475 805.687 631.679 805.855 623.094 797.498L154.703 341.495C150.278 337.19 147.895 331.184 148.164 325.018" fill="#DADADA"/>
<path fill-rule="evenodd" clip-rule="evenodd" d="M1081.98 308.653C1082.21 303.467 1080.25 298.371 1076.61 294.668L632.275 -157.62C624.994 -165.029 613.03 -165.152 605.602 -157.895L152.221 285.156C148.794 288.507 146.788 292.985 146.577 297.77C146.352 302.955 148.314 308.051 151.952 311.758L596.282 764.048C603.566 771.457 615.528 771.576 622.959 764.313L1076.34 321.266C1079.77 317.916 1081.77 313.435 1081.98 308.653M144.311 297.67C144.546 292.314 146.795 287.296 150.634 283.541L604.013 -159.512C612.336 -167.642 625.738 -167.503 633.894 -159.204L1078.23 293.082C1082.31 297.232 1084.5 302.943 1084.25 308.751C1084.01 314.111 1081.77 319.127 1077.93 322.882L624.548 765.936C616.231 774.065 602.822 773.928 594.667 765.63L150.33 313.345C146.254 309.192 144.058 303.477 144.311 297.67" fill="#DADADA"/>
<path fill-rule="evenodd" clip-rule="evenodd" d="M1049.13 301.522C1049.34 296.596 1047.6 291.899 1044.22 288.296L623.947 -160.269C620.623 -163.821 616.103 -165.871 611.233 -166.036C606.359 -166.201 601.713 -164.463 598.151 -161.145L148.493 257.911C144.978 261.186 142.929 265.626 142.719 270.418C142.504 275.343 144.242 280.04 147.616 283.643L567.895 732.209C574.767 739.543 586.337 739.931 593.692 733.083L1043.35 314.027C1046.87 310.754 1048.91 306.312 1049.13 301.522M140.452 270.315C140.688 264.926 142.991 259.941 146.938 256.261L596.602 -162.798C600.607 -166.531 605.829 -168.483 611.311 -168.296C616.788 -168.111 621.864 -165.808 625.61 -161.814L1045.88 286.753C1049.68 290.803 1051.63 296.084 1051.39 301.621C1051.16 307.009 1048.85 312.003 1044.9 315.68L595.239 734.739C586.977 742.438 573.962 742.001 566.235 733.758L145.96 285.187C142.168 281.134 140.208 275.858 140.452 270.315" fill="#DADADA"/>
<path fill-rule="evenodd" clip-rule="evenodd" d="M1016.28 294.39C1016.48 289.792 1014.9 285.372 1011.84 281.932L615.623 -162.92C609.156 -170.179 597.975 -170.842 590.697 -164.397L144.756 230.668C141.153 233.858 139.054 238.259 138.845 243.064C138.645 247.658 140.221 252.086 143.285 255.524L539.501 700.377C545.967 707.638 557.144 708.301 564.428 701.851L1010.37 306.789C1013.97 303.598 1016.07 299.193 1016.28 294.39M136.577 242.965C136.815 237.548 139.186 232.577 143.253 228.976L589.191 -166.089C597.403 -173.362 610.021 -172.615 617.319 -164.424L1013.54 280.431C1016.99 284.31 1018.77 289.302 1018.55 294.489C1018.31 299.911 1015.94 304.878 1011.88 308.481L565.933 703.55C557.718 710.817 545.1 710.073 537.801 701.879L141.588 257.031C138.131 253.147 136.351 248.153 136.577 242.965" fill="#DADADA"/>
<path fill-rule="evenodd" clip-rule="evenodd" d="M983.448 287.26C983.635 282.99 982.215 278.834 979.455 275.561L607.298 -165.574C604.365 -169.054 600.244 -171.187 595.703 -171.576C591.158 -171.967 586.733 -170.572 583.245 -167.644L141.024 203.426C137.379 206.483 135.171 210.961 134.962 215.712C134.776 219.983 136.191 224.136 138.953 227.412L511.109 668.549C517.168 675.73 527.961 676.658 535.163 670.615L977.384 299.551C981.029 296.492 983.24 292.011 983.448 287.26M132.694 215.614C132.93 210.228 135.434 205.156 139.561 201.694L581.783 -169.376C585.739 -172.691 590.748 -174.275 595.896 -173.831C601.044 -173.388 605.709 -170.972 609.034 -167.031L981.188 274.106C984.318 277.815 985.923 282.521 985.713 287.357C985.479 292.741 982.974 297.816 978.844 301.283L536.622 672.348C528.463 679.195 516.237 678.142 509.374 670.005L137.22 228.865C134.09 225.158 132.483 220.452 132.694 215.614" fill="#DADADA"/>
<path fill-rule="evenodd" clip-rule="evenodd" d="M950.627 280.129C950.799 276.175 949.535 272.292 947.068 269.19L598.97 -168.228C596.229 -171.671 592.309 -173.846 587.929 -174.349C583.551 -174.853 579.24 -173.625 575.791 -170.895L137.286 176.18C133.539 179.146 131.271 183.584 131.061 188.361C130.891 192.309 132.154 196.193 134.621 199.299L482.714 636.719C488.372 643.829 498.771 645.024 505.9 639.382L944.399 292.313C948.149 289.346 950.42 284.903 950.627 280.129M128.794 188.259C129.028 182.83 131.612 177.783 135.879 174.406L574.377 -172.667C578.304 -175.774 583.208 -177.17 588.189 -176.597C593.17 -176.024 597.63 -173.552 600.748 -169.634L948.843 267.785C951.65 271.312 953.09 275.733 952.893 280.229C952.655 285.658 950.078 290.709 945.811 294.082L507.305 641.157C499.209 647.571 487.375 646.211 480.94 638.126L132.843 200.709C130.038 197.174 128.598 192.754 128.794 188.259" fill="#DADADA"/>
<path fill-rule="evenodd" clip-rule="evenodd" d="M917.824 273.002C917.983 269.361 916.866 265.745 914.68 262.816L590.643 -170.887C585.388 -177.918 575.379 -179.379 568.326 -174.142L133.553 148.937C129.69 151.804 127.354 156.203 127.145 161.002C126.988 164.642 128.106 168.256 130.29 171.19L454.329 604.896C459.581 611.926 469.591 613.385 476.639 608.148L911.422 285.071C915.283 282.203 917.613 277.805 917.824 273.002M124.878 160.904C125.117 155.418 127.787 150.397 132.196 147.117L566.972 -175.956C575.025 -181.94 586.461 -180.271 592.463 -172.238L916.497 261.466C918.994 264.809 920.275 268.941 920.091 273.101C919.852 278.586 917.185 283.609 912.775 286.888L477.997 609.961C469.943 615.944 458.51 614.273 452.508 606.246L128.471 172.541C125.974 169.194 124.697 165.062 124.878 160.904" fill="#DADADA"/>
<path fill-rule="evenodd" clip-rule="evenodd" d="M885.038 265.876C885.184 262.492 884.237 259.23 882.294 256.442L582.317 -173.547C577.465 -180.503 567.844 -182.226 560.867 -177.39L129.808 121.693C125.829 124.455 123.425 128.81 123.214 133.646C123.068 137.03 124.018 140.29 125.962 143.076L425.935 573.07C430.787 580.03 440.407 581.751 447.385 576.911L878.446 277.831C882.425 275.071 884.826 270.71 885.038 265.876M120.949 133.546C121.19 128.001 123.949 123.001 128.516 119.834L559.571 -179.246C567.574 -184.795 578.612 -182.819 584.177 -174.84L884.154 255.15C886.384 258.348 887.475 262.089 887.303 265.973C887.062 271.521 884.306 276.52 879.745 279.689L448.679 578.772C440.679 584.321 429.64 582.344 424.075 574.365L124.1 144.373C121.868 141.176 120.779 137.434 120.949 133.546" fill="#DADADA"/>
<path fill-rule="evenodd" clip-rule="evenodd" d="M852.272 258.75C852.407 255.667 851.591 252.665 849.904 250.064L573.988 -176.212C569.535 -183.087 560.302 -185.074 553.404 -180.636L126.065 94.4474C122.017 97.0574 119.472 101.483 119.264 106.291C119.13 109.372 119.95 112.372 121.635 114.973L397.548 541.254C402 548.127 411.232 550.112 418.131 545.672L845.472 270.588C849.518 267.982 852.059 263.557 852.272 258.75M116.998 106.191C117.24 100.649 120.171 95.5504 124.836 92.5494L552.174 -182.537C560.12 -187.653 570.762 -185.363 575.894 -177.437L851.808 248.837C853.75 251.834 854.693 255.296 854.538 258.848C854.297 264.387 851.367 269.489 846.699 272.488L419.361 547.574C411.415 552.688 400.773 550.402 395.643 542.478L119.724 116.205C117.788 113.204 116.842 109.744 116.998 106.191" fill="#DADADA"/>
<path fill-rule="evenodd" clip-rule="evenodd" d="M819.522 251.622C819.645 248.839 818.948 246.092 817.516 243.684L565.662 -178.876C561.605 -185.677 552.757 -187.924 545.938 -183.883L122.322 67.2065C118.134 69.6875 115.505 74.0725 115.293 78.9315C115.171 81.7185 115.867 84.4635 117.302 86.8745L369.157 509.434C373.213 516.236 382.059 518.482 388.876 514.437L812.498 263.349C816.686 260.867 819.31 256.484 819.522 251.622M113.028 78.8325C113.274 73.2065 116.313 68.1325 121.16 65.2625L544.777 -185.828C552.675 -190.507 562.916 -187.905 567.607 -180.031L819.462 242.524C821.126 245.315 821.929 248.493 821.79 251.725C821.544 257.35 818.503 262.421 813.657 265.296L390.036 516.387C382.143 521.063 371.898 518.463 367.206 510.59L115.351 88.0305C113.69 85.2425 112.887 82.0585 113.028 78.8325" fill="#DADADA"/>
<path fill-rule="evenodd" clip-rule="evenodd" d="M786.798 244.502C786.907 242.002 786.331 239.509 785.124 237.298L557.33 -181.545C553.672 -188.271 545.212 -190.777 538.465 -187.13L118.568 39.9614C114.232 42.3084 111.515 46.6464 111.3 51.5694C111.19 54.0704 111.767 56.5624 112.971 58.7754L340.768 477.618C344.426 484.343 352.886 486.85 359.632 483.202L779.53 256.107C783.867 253.762 786.584 249.426 786.798 244.502M109.034 51.4724C109.28 45.8334 112.518 40.6634 117.488 37.9764L537.386 -189.119C545.229 -193.359 555.072 -190.445 559.326 -182.622L787.121 236.219C788.521 238.796 789.189 241.689 789.066 244.601C788.817 250.238 785.577 255.41 780.614 258.099L360.712 485.193C352.869 489.434 343.028 486.52 338.772 478.694L110.98 59.8544C109.579 57.2774 108.906 54.3804 109.034 51.4724" fill="#DADADA"/>
<mask id="mask2_4_820" style="mask-type:luminance" maskUnits="userSpaceOnUse" x="105" y="-195" width="652" height="651">
<path fill-rule="evenodd" clip-rule="evenodd" d="M105 -194.004H756.383V455.594H105V-194.004Z" fill="white"/>
</mask>
<g mask="url(#mask2_4_820)">
<path fill-rule="evenodd" clip-rule="evenodd" d="M754.102 237.38C754.198 235.158 753.726 232.922 752.735 230.91L549.001 -184.217C545.742 -190.866 537.663 -193.631 530.996 -190.378L114.815 12.7223C110.382 14.8853 107.498 19.2863 107.283 24.2063C107.186 26.4303 107.655 28.6683 108.644 30.6813L312.378 445.808C315.643 452.455 323.717 455.22 330.385 451.965L746.566 248.87C750.996 246.705 753.885 242.303 754.102 237.38M105.015 24.1073C105.266 18.3573 108.641 13.2143 113.815 10.6903L529.996 -192.411C537.786 -196.21 547.228 -192.982 551.042 -185.212L754.779 229.915C755.931 232.266 756.482 234.881 756.369 237.48C756.117 243.231 752.745 248.375 747.563 250.9L331.383 453.997C323.591 457.802 314.153 454.573 310.34 446.802L106.602 31.6733C105.449 29.3263 104.901 26.7073 105.015 24.1073" fill="#DADADA"/>
</g>
</g>
</g>
</svg>
