<svg preserveAspectRatio="none" width="146" height="135" viewBox="0 0 146 135" fill="none" xmlns="http://www.w3.org/2000/svg">
<rect x="0.218361" y="61.8193" width="145.465" height="5.2299" fill="#407BFF"/>
<rect opacity="0.3" x="0.218361" y="61.8193" width="38.9319" height="5.2299" fill="white"/>
<path d="M39.7711 67.0492H36.3844L38.157 132.597H39.7711H41.3852L43.1621 67.0492H39.7711V67.0492Z" fill="#407BFF"/>
<path opacity="0.3" d="M38.157 132.597H39.7711V68.4564L36.4401 69.0656L38.157 132.597V132.597Z" fill="white"/>
<path d="M7.6725 67.0492H4.28581L6.05836 132.597H7.6725H9.28663L11.0592 67.0492H7.6725V67.0492Z" fill="#407BFF"/>
<path opacity="0.3" d="M6.05836 132.597H7.6725V68.4564L4.33719 69.0656L6.05836 132.597V132.597Z" fill="white"/>
<path d="M138.229 67.0492H134.842L136.615 132.597H138.229H139.843L141.62 67.0492H138.229V67.0492Z" fill="#407BFF"/>
<path opacity="0.3" d="M136.615 132.597H138.229V68.4564L134.898 69.0656L136.615 132.597V132.597Z" fill="white"/>
<path d="M106.13 67.0492H102.744L104.516 132.597H106.13H107.745L109.517 67.0492H106.13V67.0492Z" fill="#407BFF"/>
<path opacity="0.3" d="M104.516 132.597H106.13V68.4564L102.799 69.0656L104.516 132.597V132.597Z" fill="white"/>
<path d="M69.2665 33.8206H34.6804C34.111 33.798 33.5653 34.0498 33.2122 34.4978C32.859 34.9459 32.7411 35.5362 32.895 36.0859L37.5019 58.1167C37.8065 59.397 38.9213 60.3197 40.2335 60.3777H74.8453C75.4137 60.3999 75.9584 60.1487 76.3113 59.7018C76.6642 59.2548 76.7829 58.6659 76.6307 58.1167L72.0195 36.0859C71.7144 34.7965 70.588 33.8697 69.2665 33.8206V33.8206Z" fill="#263238"/>
<path d="M40.5332 59.1206C39.6482 59.0608 38.9019 58.4376 38.6836 57.5761L34.0767 35.5453C33.9968 35.25 34.0551 34.9344 34.2351 34.6873C34.4218 34.4757 34.6942 34.3605 34.9758 34.3741H69.5876C70.4726 34.4339 71.2189 35.0571 71.4372 35.9186L76.0442 57.9494C76.124 58.2447 76.0657 58.5603 75.8857 58.8075C75.7002 59.0206 75.4269 59.1362 75.145 59.1206H40.5332Z" fill="white"/>
<path opacity="0.4" d="M66.6462 57.3573L62.2791 36.4677C62.2294 36.2174 62.2935 35.9578 62.4541 35.7596C62.6146 35.5614 62.8549 35.4451 63.1097 35.4424H68.727C69.1282 35.4455 69.4734 35.7272 69.5577 36.1202L73.9248 56.9926C73.9745 57.243 73.9104 57.5026 73.7498 57.7008C73.5892 57.899 73.3489 58.0153 73.0942 58.018H67.4768C67.0808 58.0168 66.7373 57.7435 66.6462 57.3573V57.3573Z" fill="#407BFF"/>
<path d="M36.9581 37.27L36.7697 36.3648H43.7058L43.8942 37.27H36.9581V37.27Z" fill="#407BFF"/>
<path d="M40.1607 39.5182L39.9723 38.6129H52.1276L52.3202 39.5182H40.1607V39.5182Z" fill="#EBEBEB"/>
<path d="M40.8029 41.762L40.6103 40.8567H54.2384L54.4267 41.762H40.8029V41.762Z" fill="#EBEBEB"/>
<path d="M41.4409 44.0101L41.2525 43.1049H52.2218L52.4144 44.0101H41.4409V44.0101Z" fill="#EBEBEB"/>
<path d="M39.0689 47.6526L38.8763 46.7474H43.2648L43.4532 47.6526H39.0689V47.6526Z" fill="#407BFF"/>
<path d="M42.2672 49.8965L42.0788 48.9912H47.4222L47.6148 49.8965H42.2672V49.8965Z" fill="#EBEBEB"/>
<path d="M48.895 49.8965L48.7023 48.9912H54.05L54.2384 49.8965H48.895V49.8965Z" fill="#EBEBEB"/>
<path d="M42.9094 52.1446L42.7211 51.2393H60.7891L60.9775 52.1446H42.9094V52.1446Z" fill="#EBEBEB"/>
<path d="M43.5474 54.3884L43.359 53.4832H57.137L57.3253 54.3884H43.5474V54.3884Z" fill="#EBEBEB"/>
<path d="M85.425 60.2447H39.8867C38.645 60.2447 37.8401 60.9526 38.1013 61.8193H88.1566C87.8997 60.9526 86.6666 60.2447 85.425 60.2447Z" fill="#263238"/>
<path opacity="0.1" d="M24.9228 28.2518L20.5513 7.37507C20.5031 7.12533 20.5679 6.86701 20.7283 6.66983C20.8887 6.47266 21.1281 6.35696 21.3819 6.35397H56.7473C57.1472 6.35662 57.492 6.63623 57.5779 7.02755L61.9494 27.8871C61.9991 28.1375 61.9349 28.397 61.7744 28.5952C61.6138 28.7935 61.3735 28.9097 61.1188 28.9125H25.7534C25.3573 28.9112 25.0138 28.638 24.9228 28.2518Z" fill="#407BFF"/>
<path d="M37.4933 7.04042H30.0692L29.9022 6.23813H37.3263L37.4933 7.04042V7.04042Z" fill="#407BFF"/>
<path opacity="0.4" d="M36.2859 8.31894H33.306L33.139 7.51665H36.1189L36.2859 8.31894V8.31894Z" fill="#407BFF"/>
<path opacity="0.4" d="M41.2439 8.31894H36.6541L36.4872 7.51665H41.0769L41.2439 8.31894V8.31894Z" fill="#407BFF"/>
<path opacity="0.4" d="M43.2434 9.59316H33.5714L33.4045 8.79087H43.0807L43.2434 9.59316V9.59316Z" fill="#407BFF"/>
<path opacity="0.4" d="M42.0146 10.8717H33.8369L33.6699 10.0694H41.8476L42.0146 10.8717V10.8717Z" fill="#407BFF"/>
<path opacity="0.4" d="M47.4393 24.4334H42.233L42.4 25.2314H47.6063L47.4393 24.4334V24.4334Z" fill="#407BFF"/>
<path d="M40.9485 22.6829H33.3231L33.1561 21.8806H40.7815L40.9485 22.6829V22.6829Z" fill="#407BFF"/>
<path opacity="0.4" d="M44.0141 25.7076H36.9239L37.0909 26.5099H44.1811L44.0141 25.7076V25.7076Z" fill="#407BFF"/>
<path opacity="0.4" d="M41.8648 24.4334H36.6584L36.8254 25.2314H42.0317L41.8648 24.4334V24.4334Z" fill="#407BFF"/>
<path opacity="0.4" d="M46.8056 23.1549H36.393L36.56 23.9572H46.9726L46.8056 23.1549V23.1549Z" fill="#407BFF"/>
<path d="M37.2321 1.08545H28.8318L28.6648 0.287453H37.0652L37.2321 1.08545V1.08545Z" fill="#407BFF"/>
<path opacity="0.4" d="M41.3809 4.11442H32.1157L32.2827 4.91671H41.5436L41.3809 4.11442V4.11442Z" fill="#407BFF"/>
<path opacity="0.4" d="M39.527 2.84019H31.8503L32.0172 3.63819H39.694L39.527 2.84019V2.84019Z" fill="#407BFF"/>
<path opacity="0.4" d="M40.0365 1.56168H31.5848L31.7518 2.36397H40.2035L40.0365 1.56168V1.56168Z" fill="#407BFF"/>
<path d="M37.1379 12.9482H31.2979L31.131 12.1459H36.971L37.1379 12.9482V12.9482Z" fill="#407BFF"/>
<path opacity="0.4" d="M46.309 15.9729H34.8987L35.0657 16.7752H46.4717L46.309 15.9729V15.9729Z" fill="#407BFF"/>
<path opacity="0.4" d="M39.3601 14.6986H34.6333L34.8002 15.5009H39.527L39.3601 14.6986V14.6986Z" fill="#407BFF"/>
<path opacity="0.4" d="M44.4893 14.6986H39.7625L39.9295 15.5009H44.6563L44.4893 14.6986V14.6986Z" fill="#407BFF"/>
<path opacity="0.4" d="M44.7805 13.4201H34.3678L34.5348 14.2224H44.9432L44.7805 13.4201V13.4201Z" fill="#407BFF"/>
<path opacity="0.4" d="M44.7591 19.8041H35.6951L35.862 20.6021H44.926L44.7591 19.8041V19.8041Z" fill="#407BFF"/>
<path opacity="0.4" d="M38.067 18.5256H35.4296L35.5966 19.3279H38.2297L38.067 18.5256V18.5256Z" fill="#407BFF"/>
<path opacity="0.4" d="M42.1902 18.5256H38.4267L38.5937 19.3279H42.3571L42.1902 18.5256V18.5256Z" fill="#407BFF"/>
<path opacity="0.4" d="M45.5768 17.2514H35.1642L35.3311 18.0494H45.7438L45.5768 17.2514V17.2514Z" fill="#407BFF"/>
<path opacity="0.4" d="M53.7759 17.0369H50.0467L49.8798 16.2346H53.6133L53.7759 17.0369V17.0369Z" fill="#407BFF"/>
<path opacity="0.4" d="M59.9842 17.0369H54.2384L54.0714 16.2346H59.8172L59.9842 17.0369V17.0369Z" fill="#407BFF"/>
<path opacity="0.4" d="M62.4246 18.3154H50.3122L50.1452 17.5131H62.2577L62.4246 18.3154V18.3154Z" fill="#407BFF"/>
<path opacity="0.4" d="M60.8148 19.5896H50.5777L50.4107 18.7873H60.6478L60.8148 19.5896V19.5896Z" fill="#407BFF"/>
<path opacity="0.4" d="M65.4003 11.9614H53.8017L53.9686 12.7594H65.5673L65.4003 11.9614V11.9614Z" fill="#407BFF"/>
<path opacity="0.4" d="M63.1482 10.6829H53.5362L53.7032 11.4852H63.3109L63.1482 10.6829V10.6829Z" fill="#407BFF"/>
<path d="M61.4099 9.40868H50.826L50.993 10.2067H61.5769L61.4099 9.40868V9.40868Z" fill="#407BFF"/>
<path opacity="0.4" d="M65.9226 24.6951H51.6395L51.8065 25.4974H66.0896L65.9226 24.6951V24.6951Z" fill="#407BFF"/>
<path opacity="0.4" d="M57.2911 23.4209H51.374L51.541 24.2189H57.4581L57.2911 23.4209V23.4209Z" fill="#407BFF"/>
<path opacity="0.4" d="M63.7134 23.4209H57.7963L57.9633 24.2189H63.8804L63.7134 23.4209V23.4209Z" fill="#407BFF"/>
<path opacity="0.4" d="M64.1415 22.1424H51.1086L51.2755 22.9446H64.3085L64.1415 22.1424V22.1424Z" fill="#407BFF"/>
<path opacity="0.4" d="M63.7819 28.5221H52.4358L52.6028 29.3244H63.9489L63.7819 28.5221V28.5221Z" fill="#407BFF"/>
<path opacity="0.4" d="M55.4714 27.2478H52.1704L52.3374 28.0501H55.6384L55.4714 27.2478V27.2478Z" fill="#407BFF"/>
<path opacity="0.4" d="M60.635 27.2478H55.9253L56.0923 28.0501H60.8019L60.635 27.2478V27.2478Z" fill="#407BFF"/>
<path opacity="0.4" d="M64.9422 25.9693H51.9049L52.0719 26.7716H65.1049L64.9422 25.9693V25.9693Z" fill="#407BFF"/>
<path opacity="0.4" d="M30.2276 29.5131H21.3477L21.5147 30.3154H30.3945L30.2276 29.5131V29.5131Z" fill="#407BFF"/>
<path opacity="0.4" d="M27.603 28.2389H21.0822L21.2492 29.0369H27.7657L27.603 28.2389V28.2389Z" fill="#407BFF"/>
<path opacity="0.4" d="M34.5776 28.2389H28.0611L28.2281 29.0369H34.7489L34.5776 28.2389V28.2389Z" fill="#407BFF"/>
<path opacity="0.4" d="M33.854 26.9604H20.8168L20.9838 27.7627H34.0167L33.854 26.9604V26.9604Z" fill="#407BFF"/>
<path d="M133.562 53.4832H128.065L128.707 61.8193H132.92L133.562 53.4832V53.4832Z" fill="#407BFF"/>
<path opacity="0.4" d="M133.562 53.4832H128.065L128.707 61.8193H132.92L133.562 53.4832V53.4832Z" fill="white"/>
<path d="M13.7565 47.6955H21.6602L18.9629 61.8193H11.0592L13.7565 47.6955V47.6955Z" fill="#263238"/>
<path d="M23.8224 43.9115H12.6605L15.786 61.8193H26.9479L23.8224 43.9115V43.9115Z" fill="#407BFF"/>
<path d="M12.0011 43.9115H12.6605L15.786 61.8193H15.1266L12.0011 43.9115V43.9115Z" fill="#407BFF"/>
<path opacity="0.3" d="M12.0011 43.9115H12.6605L15.786 61.8193H15.1266L12.0011 43.9115V43.9115Z" fill="black"/>
<path d="M17.3916 59.9015L14.934 45.8249H22.2211L24.6744 59.9015H17.3916V59.9015Z" fill="white"/>
<path opacity="0.6" d="M24.3276 59.9015L21.8743 45.8249H22.2211L24.6744 59.9015H24.3276V59.9015Z" fill="#407BFF"/>
<path d="M79.4729 21.3458C79.6314 21.6902 79.58 22.0561 79.3529 22.1594C79.1257 22.2627 78.8171 22.069 78.6586 21.7289C78.5 21.3888 78.5557 21.0186 78.7786 20.9153C79.0014 20.8119 79.3143 20.9841 79.4729 21.3458Z" fill="#263238"/>
<path d="M79.61 22.026C79.61 22.026 79.7471 24.3765 79.3271 25.737C80.1843 26.0254 81.11 25.3064 81.11 25.3064L79.61 22.026Z" fill="#FF5652"/>
<path d="M79.5157 18.5001C79.4793 18.5303 79.4343 18.5484 79.3872 18.5518C78.8214 18.5668 78.297 18.8533 77.9772 19.3224C77.9388 19.3945 77.8644 19.4399 77.783 19.4407C77.7016 19.4416 77.6262 19.3979 77.5863 19.3266C77.5464 19.2553 77.5484 19.1679 77.5914 19.0985C77.9854 18.4977 78.6456 18.1268 79.3614 18.104C79.4575 18.0987 79.5462 18.1559 79.5813 18.246C79.6163 18.336 79.5899 18.4385 79.5157 18.5001Z" fill="#263238"/>
<path d="M92.0943 20.8119C93.4186 25.4184 94.8971 28.9916 96.7014 31.0322C96.7014 31.0322 96.7357 34.6528 90.5943 36.3748C83.84 38.2691 86.4286 33.9123 86.4286 33.9123C89.8571 31.9965 89.5314 29.1035 86.9514 28.0014L92.0943 20.8119Z" fill="#FF8B7B"/>
<path d="M98.1329 30.1497C98.0129 28.4664 97.8543 26.5463 96.8214 26.4946C95.6814 26.443 89.0814 29.4049 87.6714 31.4929C86.2614 33.5808 89.0172 35.6257 89.0172 35.6257L98.1329 30.1497Z" fill="#263238"/>
<path d="M84.6243 56.217L78.9243 56.0275L79.0271 60.8234C79.0271 60.8234 83.9986 60.3068 84.2171 58.9937L84.6243 56.217Z" fill="#FF8B7B"/>
<path d="M75.9114 58.3824L75.3114 60.8363L79.0271 60.8277L78.9243 56.0318L75.9114 58.3824V58.3824Z" fill="#FF8B7B"/>
<path d="M107.501 36.2887L107.381 37.52C107.343 37.916 107.291 38.3035 107.24 38.6953C107.141 39.4745 107.017 40.2537 106.884 41.0286C106.627 42.5827 106.293 44.1283 105.907 45.6824C105.515 47.2663 105.04 48.8284 104.484 50.362C104.189 51.1499 103.88 51.9377 103.511 52.7384C103.14 53.5784 102.71 54.3912 102.226 55.1708C102.11 55.3732 101.964 55.6013 101.823 55.7907C101.681 55.9802 101.544 56.2213 101.394 56.4193C101.244 56.6173 101.086 56.8498 100.889 57.0521L100.61 57.3707C100.51 57.4882 100.404 57.6003 100.293 57.7065C99.4338 58.5516 98.427 59.2302 97.3229 59.7084C95.6289 60.4383 93.8312 60.8959 91.9957 61.0645C91.16 61.1635 90.3329 61.2022 89.5229 61.2238C88.7129 61.2453 87.9029 61.2238 87.1057 61.1807C86.3086 61.1377 85.52 61.0688 84.7357 60.9741C83.9514 60.8794 83.1886 60.7545 82.3571 60.5866L82.4943 56.0878C85.2308 55.6071 87.9358 54.9602 90.5943 54.1505C91.1856 53.9574 91.7664 53.7332 92.3343 53.4789C92.8178 53.274 93.2801 53.0216 93.7143 52.7255C93.9668 52.5727 94.1809 52.3635 94.34 52.1142L94.4643 51.9162C94.5219 51.8316 94.5748 51.7439 94.6229 51.6536C94.684 51.5547 94.7398 51.4527 94.79 51.3479C94.8457 51.236 94.9057 51.1326 94.9614 51.0078C95.4649 49.9036 95.8791 48.7605 96.2 47.5896C96.5514 46.3239 96.8814 45.0065 97.1471 43.6418C97.4129 42.2771 97.67 40.8995 97.9057 39.5089L98.2314 37.4166L98.5271 35.3803L107.501 36.2887Z" fill="#407BFF"/>
<path opacity="0.2" d="M107.501 36.2887L107.381 37.52C107.343 37.916 107.291 38.3035 107.24 38.6953C107.141 39.4745 107.017 40.2537 106.884 41.0286C106.627 42.5827 106.293 44.1283 105.907 45.6824C105.515 47.2663 105.04 48.8284 104.484 50.362C104.189 51.1499 103.88 51.9377 103.511 52.7384C103.14 53.5784 102.71 54.3912 102.226 55.1708C102.11 55.3732 101.964 55.6013 101.823 55.7907C101.681 55.9802 101.544 56.2213 101.394 56.4193C101.244 56.6173 101.086 56.8498 100.889 57.0521L100.61 57.3707C100.51 57.4882 100.404 57.6003 100.293 57.7065C99.4338 58.5516 98.427 59.2302 97.3229 59.7084C95.6289 60.4383 93.8312 60.8959 91.9957 61.0645C91.16 61.1635 90.3329 61.2022 89.5229 61.2238C88.7129 61.2453 87.9029 61.2238 87.1057 61.1807C86.3086 61.1377 85.52 61.0688 84.7357 60.9741C83.9514 60.8794 83.1886 60.7545 82.3571 60.5866L82.4943 56.0878C85.2308 55.6071 87.9358 54.9602 90.5943 54.1505C91.1856 53.9574 91.7664 53.7332 92.3343 53.4789C92.8178 53.274 93.2801 53.0216 93.7143 52.7255C93.9668 52.5727 94.1809 52.3635 94.34 52.1142L94.4643 51.9162C94.5219 51.8316 94.5748 51.7439 94.6229 51.6536C94.684 51.5547 94.7398 51.4527 94.79 51.3479C94.8457 51.236 94.9057 51.1326 94.9614 51.0078C95.4649 49.9036 95.8791 48.7605 96.2 47.5896C96.5514 46.3239 96.8814 45.0065 97.1471 43.6418C97.4129 42.2771 97.67 40.8995 97.9057 39.5089L98.2314 37.4166L98.5271 35.3803L107.501 36.2887Z" fill="black"/>
<path d="M82.1943 42.0102C84.3194 51.2137 85.5154 60.609 85.7643 70.0535H110.857C110.994 66.9409 110.471 49.3891 107.947 36.7106C107.494 34.3907 106.13 32.3521 104.162 31.0557C102.194 29.7594 99.7885 29.3148 97.49 29.8225L97.37 29.8526C94.2371 30.5673 89.7414 31.721 87.0843 32.7327L86.9771 32.7758C83.3013 34.2114 81.2549 38.1624 82.1943 42.0102Z" fill="#407BFF"/>
<path opacity="0.2" d="M83.8271 50.0607C84.0243 51.2704 84.2257 52.5533 84.41 53.8965C86.4629 51.744 87.1143 45.1486 87.1143 45.1486L83.8271 50.0607Z" fill="black"/>
<path d="M62.9814 56.5312L57.2857 55.9974L57.0972 60.7889C59.0158 61.321 61.0698 60.7388 62.4286 59.2779L62.9814 56.5312Z" fill="#FF8B7B"/>
<path d="M54.5771 57.4095L52.7514 60.7028L57.1143 60.7889L57.3029 55.9974L54.5771 57.4095V57.4095Z" fill="#FF8B7B"/>
<path d="M91.61 39.8017C91.2157 40.5551 90.8643 41.2223 90.47 41.9112C90.0757 42.6 89.6986 43.2716 89.2914 43.9389C88.4857 45.282 87.65 46.5994 86.7671 47.9038C84.9946 50.5751 83.0309 53.1132 80.8914 55.498C79.7457 56.7819 78.5004 57.9724 77.1671 59.0583C77 59.2004 76.8029 59.3381 76.6186 59.4888C76.4343 59.6395 76.2714 59.76 75.9971 59.9193C75.7229 60.0786 75.4914 60.2379 75.2429 60.3757C74.9943 60.5134 74.7371 60.6383 74.4843 60.7502C73.5389 61.1625 72.5496 61.4644 71.5357 61.65C69.7623 61.9503 67.955 61.9909 66.17 61.7705C65.334 61.6743 64.5041 61.5305 63.6843 61.34C63.2757 61.2453 62.8729 61.1377 62.4757 61.0171C62.0471 60.8966 61.7 60.7631 61.2414 60.5866L61.9486 56.1438C64.64 55.7778 67.55 55.3086 69.5557 54.3959C70.001 54.2121 70.4203 53.9704 70.8029 53.677C70.9569 53.5705 71.1004 53.4494 71.2314 53.3153C71.2614 53.2766 71.3943 53.1603 71.4929 53.0656C71.5914 52.9709 71.7071 52.8805 71.8143 52.7686C72.7316 51.8554 73.5905 50.8849 74.3857 49.8626C76.1111 47.6267 77.7231 45.3047 79.2157 42.9056C79.9871 41.6873 80.7371 40.4474 81.4871 39.2033L82.5929 37.3349L83.66 35.4966L91.61 39.8017Z" fill="#407BFF"/>
<path d="M84.7229 129.662H80.0343L77.6729 118.748H82.3657L84.7229 129.662V129.662Z" fill="#FF8B7B"/>
<path d="M79.7729 128.654H85.0443C85.2324 128.661 85.3941 128.79 85.4429 128.973L86.3686 133.166C86.4133 133.372 86.3613 133.588 86.2276 133.751C86.0938 133.914 85.893 134.006 85.6829 134.001C83.8443 133.971 82.9486 133.863 80.63 133.863C79.2029 133.863 77.3729 134.01 75.4057 134.01C73.4386 134.01 73.1772 132.055 73.9829 131.879C77.6 131.082 77.84 129.989 79.01 128.943C79.2198 128.755 79.4917 128.652 79.7729 128.654Z" fill="#263238"/>
<g opacity="0.2">
<path d="M82.37 118.753H77.6729L78.9843 124.797L83.5872 124.379L82.37 118.753V118.753Z" fill="black"/>
</g>
<path d="M90.59 15.2756C92.3043 19.6323 93.4957 22.0992 92.3643 25.2634C90.65 30.0205 84.5686 30.5027 81.6114 26.74C78.9543 23.3519 76.6314 16.7953 79.9871 13.1919C81.4813 11.5677 83.7067 10.8372 85.8674 11.2618C88.028 11.6864 89.8153 13.2055 90.59 15.2756V15.2756Z" fill="#FF8B7B"/>
<path d="M82.3529 21.8021C81.65 22.7492 81.11 23.4682 81.11 23.4682C81.11 23.4682 79.6657 19.8648 80.2186 18.2117C79.5157 16.8125 78.0971 18.8746 77.5614 16.1495C77.0257 13.4244 79.3443 10.497 80.2186 9.88993C80.3087 10.2075 80.3492 10.5372 80.3386 10.8672C82.701 8.94134 85.7035 7.98882 88.7386 8.20234C88.4849 8.58131 88.3234 9.01486 88.2671 9.46804C88.2671 9.46804 93.3543 10.3291 94.5114 13.2221C94.1022 13.0259 93.6703 12.8813 93.2257 12.7916C94.1583 14.1347 94.5277 15.7923 94.2543 17.4066C93.8852 19.7609 93.6932 22.1397 93.68 24.5229C93.7271 25.7456 90.3886 28.0832 88.3529 25.5863C86.3171 23.0893 82.3529 21.8021 82.3529 21.8021Z" fill="#263238"/>
<path d="M84.4743 20.8636C84.7398 21.8784 84.6644 22.9528 84.26 23.9202C83.7157 25.2117 82.5971 24.9018 82.0443 23.7738C81.5429 22.7621 81.2214 20.8851 82.1086 19.9854C82.9957 19.0856 84.14 19.6453 84.4743 20.8636Z" fill="#FF8B7B"/>
<path d="M93.2857 70.0363C93.2857 70.0363 71.4971 77.9748 70.8586 88.4749C69.6757 107.818 77.5486 123.131 77.5486 123.131L84.7657 122.356C84.7657 122.356 83.48 116.131 82.5243 98.6091C81.32 76.5886 118.524 99.1257 110.861 70.0363H93.2857Z" fill="#407BFF"/>
<path opacity="0.5" d="M93.2857 70.0363C93.2857 70.0363 71.4971 77.9748 70.8586 88.4749C69.6757 107.818 77.5486 123.131 77.5486 123.131L84.7657 122.356C84.7657 122.356 83.48 116.131 82.5243 98.6091C81.32 76.5886 118.524 99.1257 110.861 70.0363H93.2857Z" fill="white"/>
<path d="M75.5514 120.462C75.5172 120.462 76.7 123.682 76.7 123.682L85.7 122.795L85.25 119.868L75.5514 120.462Z" fill="#407BFF"/>
<path d="M64.4557 130.2H59.7629L58.3914 119.282H63.0843L64.4557 130.2V130.2Z" fill="#FF8B7B"/>
<path d="M59.7286 128.65H64.8714C65.0627 128.648 65.2293 128.781 65.27 128.969L66.2043 133.157C66.2596 133.365 66.2143 133.587 66.082 133.757C65.9496 133.926 65.7457 134.023 65.5314 134.018C63.6843 133.988 61.01 133.885 58.6743 133.889C55.9571 133.889 55.4386 134.04 52.2457 134.044C50.3171 134.044 49.7814 132.094 50.5871 131.892C54.2557 131.082 55.43 130.992 58.5971 129.025C58.9315 128.795 59.3238 128.665 59.7286 128.65Z" fill="#263238"/>
<path opacity="0.2" d="M58.3957 119.286L59.1414 125.232L63.7957 124.913L63.0886 119.286H58.3957V119.286Z" fill="black"/>
<path d="M85.7643 70.0363C85.7643 70.0363 50.0643 73.2177 50.45 91.2302C50.8486 109.966 57.8171 122.601 57.8171 122.601H64.7857C64.7857 122.601 63.4657 112.88 63.7014 94.4375C63.77 88.9141 74.8871 87.0887 85.7386 86.4429C95.1157 85.8833 103.893 80.5148 107.536 71.8057L108.286 70.0363H85.7643Z" fill="#407BFF"/>
<path opacity="0.5" d="M85.7643 70.0363C85.7643 70.0363 50.0643 73.2177 50.45 91.2302C50.8486 109.966 57.8171 122.601 57.8171 122.601H64.7857C64.7857 122.601 63.4657 112.88 63.7014 94.4375C63.77 88.9141 74.8871 87.0887 85.7386 86.4429C95.1157 85.8833 103.893 80.5148 107.536 71.8057L108.286 70.0363H85.7643Z" fill="white"/>
<path d="M56.1843 120.72C56.1543 120.72 57.38 123.957 57.38 123.957L65.7971 123.35L65.3043 120.423L56.1843 120.72Z" fill="#407BFF"/>
<path d="M95.1371 49.7938L90.6071 67.3284C89.4489 71.8206 88.8642 76.4426 88.8671 81.0831V89.2327C88.8671 91.2905 90.3757 92.9609 92.24 92.9609H115.46C117.324 92.9609 118.833 91.2905 118.833 89.2327V81.0831C118.831 76.4425 119.417 71.8205 120.577 67.3284L124.576 51.8301C125.193 49.4494 123.573 47.0945 121.331 47.0945H98.3771C96.8097 47.144 95.4755 48.2556 95.1371 49.7938Z" fill="#263238"/>
<path d="M66.2557 84.4712L67.0143 88.8193C67.4171 91.1053 69.4186 92.9608 71.4886 92.9608H97.3014C99.3714 92.9608 100.73 91.1053 100.327 88.8193L99.5686 84.4712C99.11 81.8666 96.8343 79.7571 94.4771 79.7571H69.7143C67.34 79.7571 65.8014 81.8666 66.2557 84.4712Z" fill="#263238"/>
<path d="M99.7871 97.3262H86.2657L84.9457 92.9608H101.107L99.7871 97.3262V97.3262Z" fill="#407BFF"/>
<rect x="90.6114" y="97.3262" width="4.83" height="32.4646" fill="#407BFF"/>
<path opacity="0.7" d="M95.4414 129.791H90.6114V98.1054L95.4414 98.6005V129.791V129.791Z" fill="white"/>
<path opacity="0.7" d="M94.2629 129.791H93.11V98.3594L94.2629 98.48V129.791V129.791Z" fill="white"/>
<path d="M104.133 134.811H81.9157C81.6501 134.808 81.4158 134.635 81.3341 134.381C81.2524 134.127 81.3417 133.849 81.5557 133.691L85.0786 131.108C86.7722 129.862 88.8165 129.19 90.9157 129.188H95.1371C97.235 129.19 99.2777 129.863 100.97 131.108L104.497 133.691C104.712 133.85 104.801 134.129 104.718 134.383C104.635 134.638 104.399 134.81 104.133 134.811V134.811Z" fill="#407BFF"/>
</svg>
