<svg preserveAspectRatio="none" width="171" height="80" viewBox="0 0 171 80" fill="none" xmlns="http://www.w3.org/2000/svg">
<path fill-rule="evenodd" clip-rule="evenodd" d="M7.85938 3.72656C7.85938 5.65969 6.29148 7.22656 4.36004 7.22656C2.42727 7.22656 0.859375 5.65969 0.859375 3.72656C0.859375 1.79343 2.42727 0.226562 4.36004 0.226562C6.29148 0.226562 7.85938 1.79343 7.85938 3.72656Z" stroke="#68D585"/>
<path fill-rule="evenodd" clip-rule="evenodd" d="M26.8594 3.72656C26.8594 5.65969 25.2915 7.22656 23.36 7.22656C21.4273 7.22656 19.8594 5.65969 19.8594 3.72656C19.8594 1.79343 21.4273 0.226562 23.36 0.226562C25.2915 0.226562 26.8594 1.79343 26.8594 3.72656Z" stroke="#68D585"/>
<path fill-rule="evenodd" clip-rule="evenodd" d="M44.8594 3.72656C44.8594 5.65969 43.2915 7.22656 41.36 7.22656C39.4273 7.22656 37.8594 5.65969 37.8594 3.72656C37.8594 1.79343 39.4273 0.226562 41.36 0.226562C43.2915 0.226562 44.8594 1.79343 44.8594 3.72656Z" stroke="#68D585"/>
<path fill-rule="evenodd" clip-rule="evenodd" d="M62.8594 3.72656C62.8594 5.65969 61.2928 7.22656 59.36 7.22656C57.4273 7.22656 55.8594 5.65969 55.8594 3.72656C55.8594 1.79343 57.4273 0.226562 59.36 0.226562C61.2928 0.226562 62.8594 1.79343 62.8594 3.72656Z" stroke="#68D585"/>
<path fill-rule="evenodd" clip-rule="evenodd" d="M80.8594 3.72656C80.8594 5.65969 79.2925 7.22656 77.3594 7.22656C75.4262 7.22656 73.8594 5.65969 73.8594 3.72656C73.8594 1.79343 75.4262 0.226562 77.3594 0.226562C79.2925 0.226562 80.8594 1.79343 80.8594 3.72656Z" stroke="#68D585"/>
<path fill-rule="evenodd" clip-rule="evenodd" d="M98.8594 3.72656C98.8594 5.65969 97.2925 7.22656 95.3594 7.22656C93.4262 7.22656 91.8594 5.65969 91.8594 3.72656C91.8594 1.79343 93.4262 0.226562 95.3594 0.226562C97.2925 0.226562 98.8594 1.79343 98.8594 3.72656Z" stroke="#68D585"/>
<path fill-rule="evenodd" clip-rule="evenodd" d="M116.859 3.72656C116.859 5.65969 115.293 7.22656 113.361 7.22656C111.426 7.22656 109.859 5.65969 109.859 3.72656C109.859 1.79343 111.426 0.226562 113.361 0.226562C115.293 0.226562 116.859 1.79343 116.859 3.72656Z" stroke="#68D585"/>
<path fill-rule="evenodd" clip-rule="evenodd" d="M134.859 3.72656C134.859 5.65969 133.291 7.22656 131.36 7.22656C129.426 7.22656 127.859 5.65969 127.859 3.72656C127.859 1.79343 129.426 0.226562 131.36 0.226562C133.291 0.226562 134.859 1.79343 134.859 3.72656Z" stroke="#68D585"/>
<path fill-rule="evenodd" clip-rule="evenodd" d="M152.859 3.72656C152.859 5.65969 151.291 7.22656 149.36 7.22656C147.427 7.22656 145.859 5.65969 145.859 3.72656C145.859 1.79343 147.427 0.226562 149.36 0.226562C151.291 0.226562 152.859 1.79343 152.859 3.72656Z" stroke="#68D585"/>
<path fill-rule="evenodd" clip-rule="evenodd" d="M170.859 3.72656C170.859 5.65969 169.291 7.22656 167.36 7.22656C165.427 7.22656 163.859 5.65969 163.859 3.72656C163.859 1.79343 165.427 0.226562 167.36 0.226562C169.291 0.226562 170.859 1.79343 170.859 3.72656Z" stroke="#68D585"/>
<path fill-rule="evenodd" clip-rule="evenodd" d="M7.85938 21.7266C7.85938 23.6597 6.29148 25.2266 4.36004 25.2266C2.42727 25.2266 0.859375 23.6597 0.859375 21.7266C0.859375 19.7934 2.42727 18.2266 4.36004 18.2266C6.29148 18.2266 7.85938 19.7934 7.85938 21.7266Z" stroke="#68D585"/>
<path fill-rule="evenodd" clip-rule="evenodd" d="M26.8594 21.7266C26.8594 23.6597 25.2915 25.2266 23.36 25.2266C21.4273 25.2266 19.8594 23.6597 19.8594 21.7266C19.8594 19.7934 21.4273 18.2266 23.36 18.2266C25.2915 18.2266 26.8594 19.7934 26.8594 21.7266Z" stroke="#68D585"/>
<path fill-rule="evenodd" clip-rule="evenodd" d="M44.8594 21.7266C44.8594 23.6597 43.2915 25.2266 41.36 25.2266C39.4273 25.2266 37.8594 23.6597 37.8594 21.7266C37.8594 19.7934 39.4273 18.2266 41.36 18.2266C43.2915 18.2266 44.8594 19.7934 44.8594 21.7266Z" stroke="#68D585"/>
<path fill-rule="evenodd" clip-rule="evenodd" d="M62.8594 21.7266C62.8594 23.6597 61.2928 25.2266 59.36 25.2266C57.4273 25.2266 55.8594 23.6597 55.8594 21.7266C55.8594 19.7934 57.4273 18.2266 59.36 18.2266C61.2928 18.2266 62.8594 19.7934 62.8594 21.7266Z" stroke="#68D585"/>
<path fill-rule="evenodd" clip-rule="evenodd" d="M80.8594 21.7266C80.8594 23.6597 79.2925 25.2266 77.3594 25.2266C75.4262 25.2266 73.8594 23.6597 73.8594 21.7266C73.8594 19.7934 75.4262 18.2266 77.3594 18.2266C79.2925 18.2266 80.8594 19.7934 80.8594 21.7266Z" stroke="#68D585"/>
<path fill-rule="evenodd" clip-rule="evenodd" d="M98.8594 21.7266C98.8594 23.6597 97.2925 25.2266 95.3594 25.2266C93.4262 25.2266 91.8594 23.6597 91.8594 21.7266C91.8594 19.7934 93.4262 18.2266 95.3594 18.2266C97.2925 18.2266 98.8594 19.7934 98.8594 21.7266Z" stroke="#68D585"/>
<path fill-rule="evenodd" clip-rule="evenodd" d="M116.859 21.7266C116.859 23.6597 115.293 25.2266 113.361 25.2266C111.426 25.2266 109.859 23.6597 109.859 21.7266C109.859 19.7934 111.426 18.2266 113.361 18.2266C115.293 18.2266 116.859 19.7934 116.859 21.7266Z" stroke="#68D585"/>
<path fill-rule="evenodd" clip-rule="evenodd" d="M134.859 21.7266C134.859 23.6597 133.291 25.2266 131.36 25.2266C129.426 25.2266 127.859 23.6597 127.859 21.7266C127.859 19.7934 129.426 18.2266 131.36 18.2266C133.291 18.2266 134.859 19.7934 134.859 21.7266Z" stroke="#68D585"/>
<path fill-rule="evenodd" clip-rule="evenodd" d="M152.859 21.7266C152.859 23.6597 151.291 25.2266 149.36 25.2266C147.427 25.2266 145.859 23.6597 145.859 21.7266C145.859 19.7934 147.427 18.2266 149.36 18.2266C151.291 18.2266 152.859 19.7934 152.859 21.7266Z" stroke="#68D585"/>
<path fill-rule="evenodd" clip-rule="evenodd" d="M170.859 21.7266C170.859 23.6597 169.291 25.2266 167.36 25.2266C165.427 25.2266 163.859 23.6597 163.859 21.7266C163.859 19.7934 165.427 18.2266 167.36 18.2266C169.291 18.2266 170.859 19.7934 170.859 21.7266Z" stroke="#68D585"/>
<path fill-rule="evenodd" clip-rule="evenodd" d="M7.85938 39.7266C7.85938 41.6597 6.29148 43.2266 4.36004 43.2266C2.42727 43.2266 0.859375 41.6597 0.859375 39.7266C0.859375 37.7934 2.42727 36.2266 4.36004 36.2266C6.29148 36.2266 7.85938 37.7934 7.85938 39.7266Z" stroke="#68D585"/>
<path fill-rule="evenodd" clip-rule="evenodd" d="M26.8594 39.7266C26.8594 41.6597 25.2915 43.2266 23.36 43.2266C21.4273 43.2266 19.8594 41.6597 19.8594 39.7266C19.8594 37.7934 21.4273 36.2266 23.36 36.2266C25.2915 36.2266 26.8594 37.7934 26.8594 39.7266Z" stroke="#68D585"/>
<path fill-rule="evenodd" clip-rule="evenodd" d="M44.8594 39.7266C44.8594 41.6597 43.2915 43.2266 41.36 43.2266C39.4273 43.2266 37.8594 41.6597 37.8594 39.7266C37.8594 37.7934 39.4273 36.2266 41.36 36.2266C43.2915 36.2266 44.8594 37.7934 44.8594 39.7266Z" stroke="#68D585"/>
<path fill-rule="evenodd" clip-rule="evenodd" d="M62.8594 39.7266C62.8594 41.6597 61.2928 43.2266 59.36 43.2266C57.4273 43.2266 55.8594 41.6597 55.8594 39.7266C55.8594 37.7934 57.4273 36.2266 59.36 36.2266C61.2928 36.2266 62.8594 37.7934 62.8594 39.7266Z" stroke="#68D585"/>
<path fill-rule="evenodd" clip-rule="evenodd" d="M80.8594 39.7266C80.8594 41.6597 79.2925 43.2266 77.3594 43.2266C75.4262 43.2266 73.8594 41.6597 73.8594 39.7266C73.8594 37.7934 75.4262 36.2266 77.3594 36.2266C79.2925 36.2266 80.8594 37.7934 80.8594 39.7266Z" stroke="#68D585"/>
<path fill-rule="evenodd" clip-rule="evenodd" d="M98.8594 39.7266C98.8594 41.6597 97.2925 43.2266 95.3594 43.2266C93.4262 43.2266 91.8594 41.6597 91.8594 39.7266C91.8594 37.7934 93.4262 36.2266 95.3594 36.2266C97.2925 36.2266 98.8594 37.7934 98.8594 39.7266Z" stroke="#68D585"/>
<path fill-rule="evenodd" clip-rule="evenodd" d="M116.859 39.7266C116.859 41.6597 115.293 43.2266 113.361 43.2266C111.426 43.2266 109.859 41.6597 109.859 39.7266C109.859 37.7934 111.426 36.2266 113.361 36.2266C115.293 36.2266 116.859 37.7934 116.859 39.7266Z" stroke="#68D585"/>
<path fill-rule="evenodd" clip-rule="evenodd" d="M134.859 39.7266C134.859 41.6597 133.291 43.2266 131.36 43.2266C129.426 43.2266 127.859 41.6597 127.859 39.7266C127.859 37.7934 129.426 36.2266 131.36 36.2266C133.291 36.2266 134.859 37.7934 134.859 39.7266Z" stroke="#68D585"/>
<path fill-rule="evenodd" clip-rule="evenodd" d="M152.859 39.7266C152.859 41.6597 151.291 43.2266 149.36 43.2266C147.427 43.2266 145.859 41.6597 145.859 39.7266C145.859 37.7934 147.427 36.2266 149.36 36.2266C151.291 36.2266 152.859 37.7934 152.859 39.7266Z" stroke="#68D585"/>
<path fill-rule="evenodd" clip-rule="evenodd" d="M170.859 39.7266C170.859 41.6597 169.291 43.2266 167.36 43.2266C165.427 43.2266 163.859 41.6597 163.859 39.7266C163.859 37.7934 165.427 36.2266 167.36 36.2266C169.291 36.2266 170.859 37.7934 170.859 39.7266Z" stroke="#68D585"/>
<path fill-rule="evenodd" clip-rule="evenodd" d="M7.85938 57.7266C7.85938 59.6597 6.29148 61.2266 4.36004 61.2266C2.42727 61.2266 0.859375 59.6597 0.859375 57.7266C0.859375 55.7934 2.42727 54.2266 4.36004 54.2266C6.29148 54.2266 7.85938 55.7934 7.85938 57.7266Z" stroke="#68D585"/>
<path fill-rule="evenodd" clip-rule="evenodd" d="M26.8594 57.7266C26.8594 59.6597 25.2915 61.2266 23.36 61.2266C21.4273 61.2266 19.8594 59.6597 19.8594 57.7266C19.8594 55.7934 21.4273 54.2266 23.36 54.2266C25.2915 54.2266 26.8594 55.7934 26.8594 57.7266Z" stroke="#68D585"/>
<path fill-rule="evenodd" clip-rule="evenodd" d="M44.8594 57.7266C44.8594 59.6597 43.2915 61.2266 41.36 61.2266C39.4273 61.2266 37.8594 59.6597 37.8594 57.7266C37.8594 55.7934 39.4273 54.2266 41.36 54.2266C43.2915 54.2266 44.8594 55.7934 44.8594 57.7266Z" stroke="#68D585"/>
<path fill-rule="evenodd" clip-rule="evenodd" d="M62.8594 57.7266C62.8594 59.6597 61.2928 61.2266 59.36 61.2266C57.4273 61.2266 55.8594 59.6597 55.8594 57.7266C55.8594 55.7934 57.4273 54.2266 59.36 54.2266C61.2928 54.2266 62.8594 55.7934 62.8594 57.7266Z" stroke="#68D585"/>
<path fill-rule="evenodd" clip-rule="evenodd" d="M80.8594 57.7266C80.8594 59.6597 79.2925 61.2266 77.3594 61.2266C75.4262 61.2266 73.8594 59.6597 73.8594 57.7266C73.8594 55.7934 75.4262 54.2266 77.3594 54.2266C79.2925 54.2266 80.8594 55.7934 80.8594 57.7266Z" stroke="#68D585"/>
<path fill-rule="evenodd" clip-rule="evenodd" d="M98.8594 57.7266C98.8594 59.6597 97.2925 61.2266 95.3594 61.2266C93.4262 61.2266 91.8594 59.6597 91.8594 57.7266C91.8594 55.7934 93.4262 54.2266 95.3594 54.2266C97.2925 54.2266 98.8594 55.7934 98.8594 57.7266Z" stroke="#68D585"/>
<path fill-rule="evenodd" clip-rule="evenodd" d="M116.859 57.7266C116.859 59.6597 115.293 61.2266 113.361 61.2266C111.426 61.2266 109.859 59.6597 109.859 57.7266C109.859 55.7934 111.426 54.2266 113.361 54.2266C115.293 54.2266 116.859 55.7934 116.859 57.7266Z" stroke="#68D585"/>
<path fill-rule="evenodd" clip-rule="evenodd" d="M134.859 57.7266C134.859 59.6597 133.291 61.2266 131.36 61.2266C129.426 61.2266 127.859 59.6597 127.859 57.7266C127.859 55.7934 129.426 54.2266 131.36 54.2266C133.291 54.2266 134.859 55.7934 134.859 57.7266Z" stroke="#68D585"/>
<path fill-rule="evenodd" clip-rule="evenodd" d="M152.859 57.7266C152.859 59.6597 151.291 61.2266 149.36 61.2266C147.427 61.2266 145.859 59.6597 145.859 57.7266C145.859 55.7934 147.427 54.2266 149.36 54.2266C151.291 54.2266 152.859 55.7934 152.859 57.7266Z" stroke="#68D585"/>
<path fill-rule="evenodd" clip-rule="evenodd" d="M170.859 57.7266C170.859 59.6597 169.291 61.2266 167.36 61.2266C165.427 61.2266 163.859 59.6597 163.859 57.7266C163.859 55.7934 165.427 54.2266 167.36 54.2266C169.291 54.2266 170.859 55.7934 170.859 57.7266Z" stroke="#68D585"/>
<path fill-rule="evenodd" clip-rule="evenodd" d="M7.85938 75.7266C7.85938 77.6597 6.29148 79.2266 4.36004 79.2266C2.42727 79.2266 0.859375 77.6597 0.859375 75.7266C0.859375 73.7934 2.42727 72.2266 4.36004 72.2266C6.29148 72.2266 7.85938 73.7934 7.85938 75.7266Z" stroke="#68D585"/>
<path fill-rule="evenodd" clip-rule="evenodd" d="M26.8594 75.7266C26.8594 77.6597 25.2915 79.2266 23.36 79.2266C21.4273 79.2266 19.8594 77.6597 19.8594 75.7266C19.8594 73.7934 21.4273 72.2266 23.36 72.2266C25.2915 72.2266 26.8594 73.7934 26.8594 75.7266Z" stroke="#68D585"/>
<path fill-rule="evenodd" clip-rule="evenodd" d="M44.8594 75.7266C44.8594 77.6597 43.2915 79.2266 41.36 79.2266C39.4273 79.2266 37.8594 77.6597 37.8594 75.7266C37.8594 73.7934 39.4273 72.2266 41.36 72.2266C43.2915 72.2266 44.8594 73.7934 44.8594 75.7266Z" stroke="#68D585"/>
<path fill-rule="evenodd" clip-rule="evenodd" d="M62.8594 75.7266C62.8594 77.6597 61.2928 79.2266 59.36 79.2266C57.4273 79.2266 55.8594 77.6597 55.8594 75.7266C55.8594 73.7934 57.4273 72.2266 59.36 72.2266C61.2928 72.2266 62.8594 73.7934 62.8594 75.7266Z" stroke="#68D585"/>
<path fill-rule="evenodd" clip-rule="evenodd" d="M80.8594 75.7266C80.8594 77.6597 79.2925 79.2266 77.3594 79.2266C75.4262 79.2266 73.8594 77.6597 73.8594 75.7266C73.8594 73.7934 75.4262 72.2266 77.3594 72.2266C79.2925 72.2266 80.8594 73.7934 80.8594 75.7266Z" stroke="#68D585"/>
<path fill-rule="evenodd" clip-rule="evenodd" d="M98.8594 75.7266C98.8594 77.6597 97.2925 79.2266 95.3594 79.2266C93.4262 79.2266 91.8594 77.6597 91.8594 75.7266C91.8594 73.7934 93.4262 72.2266 95.3594 72.2266C97.2925 72.2266 98.8594 73.7934 98.8594 75.7266Z" stroke="#68D585"/>
<path fill-rule="evenodd" clip-rule="evenodd" d="M116.859 75.7266C116.859 77.6597 115.293 79.2266 113.361 79.2266C111.426 79.2266 109.859 77.6597 109.859 75.7266C109.859 73.7934 111.426 72.2266 113.361 72.2266C115.293 72.2266 116.859 73.7934 116.859 75.7266Z" stroke="#68D585"/>
<path fill-rule="evenodd" clip-rule="evenodd" d="M134.859 75.7266C134.859 77.6597 133.291 79.2266 131.36 79.2266C129.426 79.2266 127.859 77.6597 127.859 75.7266C127.859 73.7934 129.426 72.2266 131.36 72.2266C133.291 72.2266 134.859 73.7934 134.859 75.7266Z" stroke="#68D585"/>
<path fill-rule="evenodd" clip-rule="evenodd" d="M152.859 75.7266C152.859 77.6597 151.291 79.2266 149.36 79.2266C147.427 79.2266 145.859 77.6597 145.859 75.7266C145.859 73.7934 147.427 72.2266 149.36 72.2266C151.291 72.2266 152.859 73.7934 152.859 75.7266Z" stroke="#68D585"/>
<path fill-rule="evenodd" clip-rule="evenodd" d="M170.859 75.7266C170.859 77.6597 169.291 79.2266 167.36 79.2266C165.427 79.2266 163.859 77.6597 163.859 75.7266C163.859 73.7934 165.427 72.2266 167.36 72.2266C169.291 72.2266 170.859 73.7934 170.859 75.7266Z" stroke="#68D585"/>
</svg>
